<svg width="24" height="24" viewBox="0 0 24 24" fill="none" xmlns="http://www.w3.org/2000/svg">
<g clip-path="url(#clip0)">
<path d="M1 3C0.447715 3 0 3.44772 0 4C0 4.55229 0.447716 5 1 5L8 5L8.00002 20C8.00002 20.5523 8.44774 21 9.00002 21C9.55231 21 10 20.5523 10 20L10 5L17 5C17.5523 5 18 4.55228 18 4C18 3.44772 17.5523 3 17 3H1Z" fill="#2C2A29"/>
<path d="M14 10C13.4477 10 13 10.4477 13 11C13 11.5523 13.4477 12 14 12H17.5L17.5 20C17.5 20.5523 17.9477 21 18.5 21C19.0523 21 19.5 20.5523 19.5 20L19.5 12H23C23.5523 12 24 11.5523 24 11C24 10.4477 23.5523 10 23 10L14 10Z" fill="#2C2A29"/>
</g>
<defs>
<clipPath id="clip0">
<rect width="24" height="24" fill="white"/>
</clipPath>
</defs>
</svg>
