<svg width="24" height="24" viewBox="0 0 24 24" fill="none" xmlns="http://www.w3.org/2000/svg">
<path d="M15.5278 12.5C16.08 12.5 16.5278 12.9477 16.5278 13.5V14.5H17.5278C18.08 14.5 18.5278 14.9477 18.5278 15.5C18.5278 16.0523 18.08 16.5 17.5278 16.5H16.5278V17.5C16.5278 18.0523 16.08 18.5 15.5278 18.5C14.9755 18.5 14.5278 18.0523 14.5278 17.5V16.5H13.5278C12.9755 16.5 12.5278 16.0523 12.5278 15.5C12.5278 14.9477 12.9755 14.5 13.5278 14.5H14.5278V13.5C14.5278 12.9477 14.9755 12.5 15.5278 12.5Z" />
<path fill-rule="evenodd" clip-rule="evenodd" d="M13.5822 9.29619C13.9608 8.67014 14.1788 7.93599 14.1788 7.15094C14.1788 4.85844 12.3203 3 10.0278 3C7.73533 3 5.87688 4.85844 5.87688 7.15094C5.87688 9.44345 7.73533 11.3019 10.0278 11.3019C10.2214 11.3019 10.4118 11.2886 10.5983 11.263C10.3987 11.495 10.2152 11.7413 10.0495 12.0001L10.0276 12.0001C7.02584 12.0001 4.33299 13.3227 2.50001 15.4169C2.20694 15.7517 2.20694 16.2484 2.5 16.5833C4.33299 18.6775 7.02587 20.0002 10.0277 20.0002C10.2905 20.0002 10.5511 19.99 10.8088 19.9701C11.9935 21.2203 13.6696 22 15.5278 22C19.1176 22 22.0278 19.0899 22.0278 15.5C22.0278 11.9101 19.1176 9 15.5278 9C14.85 9 14.1965 9.10374 13.5822 9.29619ZM4.73576 16.0001C5.951 14.927 7.49199 14.2193 9.19166 14.0431C9.08442 14.5115 9.02776 14.9991 9.02776 15.5C9.02776 16.3799 9.2026 17.2189 9.51941 17.9843C7.69026 17.8699 6.02865 17.1417 4.73576 16.0001ZM10.0278 9.30189C11.2158 9.30189 12.1788 8.33888 12.1788 7.15094C12.1788 5.96301 11.2158 5 10.0278 5C8.83989 5 7.87688 5.96301 7.87688 7.15094C7.87688 8.33888 8.83989 9.30189 10.0278 9.30189ZM15.5278 20C18.013 20 20.0278 17.9853 20.0278 15.5C20.0278 13.0147 18.013 11 15.5278 11C13.0425 11 11.0278 13.0147 11.0278 15.5C11.0278 17.9853 13.0425 20 15.5278 20Z" />
</svg>
