<svg width="30" height="30" viewBox="0 0 30 30" fill="none" xmlns="http://www.w3.org/2000/svg">
<path d="M26.4705 17.7441V4.41177C26.4705 2.95236 25.2829 1.76471 23.8235 1.76471H4.41171C2.9523 1.76471 1.76465 2.95236 1.76465 4.41177V18.5294C1.76465 19.9888 2.9523 21.1765 4.41171 21.1765H15.9529C15.9114 21.465 15.8823 21.7579 15.8823 22.0588C15.8823 25.4638 18.6529 28.2353 22.0588 28.2353C25.4646 28.2353 28.2352 25.4638 28.2352 22.0588C28.2352 20.3815 27.5602 18.8585 26.4705 17.7441ZM4.41171 3.52942H23.8235C24.3096 3.52942 24.7058 3.92559 24.7058 4.41177V10.5168L17.3161 4.605C16.9888 4.34294 16.522 4.34736 16.1999 4.61647L10.9058 9.02824C10.8732 9.05559 10.8573 9.09265 10.8299 9.12265L8.49259 7.25206C8.16524 6.98912 7.69847 6.9953 7.37641 7.26353L3.52935 10.4691V4.41177C3.52935 3.92559 3.92553 3.52942 4.41171 3.52942ZM4.41171 19.4118C3.92553 19.4118 3.52935 19.0165 3.52935 18.5294V12.7659L7.95259 9.0803L16.2141 15.6891C16.3764 15.8188 16.5705 15.8824 16.7646 15.8824C17.0232 15.8824 17.2799 15.7694 17.4538 15.5515C17.7582 15.1712 17.6964 14.6153 17.3161 14.3118L12.2179 10.2327L16.777 6.43324L24.7058 12.7765V16.4868C23.902 16.1038 23.0073 15.8824 22.0588 15.8824C19.6014 15.8824 17.4811 17.3294 16.4867 19.4118H4.41171ZM22.0588 26.4706C19.6261 26.4706 17.647 24.4915 17.647 22.0588C17.647 19.6262 19.6261 17.6471 22.0588 17.6471C24.4914 17.6471 26.4705 19.6262 26.4705 22.0588C26.4705 24.4915 24.4914 26.4706 22.0588 26.4706Z" fill="#2C2A29"/>
<path d="M22.9411 21.1765V19.4118C22.9411 18.9238 22.5458 18.5294 22.0588 18.5294C21.5717 18.5294 21.1764 18.9238 21.1764 19.4118V21.1765H19.4117C18.9246 21.1765 18.5294 21.5709 18.5294 22.0588C18.5294 22.5468 18.9246 22.9412 19.4117 22.9412H21.1764V24.7059C21.1764 25.1938 21.5717 25.5882 22.0588 25.5882C22.5458 25.5882 22.9411 25.1938 22.9411 24.7059V22.9412H24.7058C25.1929 22.9412 25.5882 22.5468 25.5882 22.0588C25.5882 21.5709 25.1929 21.1765 24.7058 21.1765H22.9411Z" fill="#2C2A29"/>
</svg>
