<svg width="24" height="24" viewBox="0 0 24 24" fill="none" xmlns="http://www.w3.org/2000/svg">
<path d="M6 0C5.44772 0 5 0.447715 5 1C5 1.55228 5.44772 2 6 2H10C10 2.55228 10.4477 3 11 3C11.5523 3 12 2.55228 12 2C12 0.895431 11.1046 0 10 0H6Z" fill="#2C2A29"/>
<path d="M7 9C6.44772 9 6 9.44771 6 10V11C6 11.5523 6.44772 12 7 12C7.55228 12 8 11.5523 8 11V10C8 9.44772 7.55228 9 7 9Z" fill="#2C2A29"/>
<path d="M10 10C10 9.44771 10.4477 9 11 9C11.5523 9 12 9.44772 12 10V11C12 11.5523 11.5523 12 11 12C10.4477 12 10 11.5523 10 11V10Z" fill="#2C2A29"/>
<path d="M16.5 14.5C17.0523 14.5 17.5 14.9477 17.5 15.5V16.5H18.5C19.0523 16.5 19.5 16.9477 19.5 17.5C19.5 18.0523 19.0523 18.5 18.5 18.5H17.5V19.5C17.5 20.0523 17.0523 20.5 16.5 20.5C15.9477 20.5 15.5 20.0523 15.5 19.5V18.5H14.5C13.9477 18.5 13.5 18.0523 13.5 17.5C13.5 16.9477 13.9477 16.5 14.5 16.5H15.5V15.5C15.5 14.9477 15.9477 14.5 16.5 14.5Z" fill="#2C2A29"/>
<path fill-rule="evenodd" clip-rule="evenodd" d="M23 13.6126C23 14.1387 22.8013 14.6053 22.483 14.9553C22.8158 15.7368 23 16.5969 23 17.5C23 21.0899 20.0899 24 16.5 24C12.9101 24 10 21.0899 10 17.5C10 17.3318 10.0064 17.165 10.0189 17H3C1.89543 17 1 16.1046 1 15V6C1 4.89543 1.89543 4 3 4H15C16.1046 4 17 4.89543 17 6V6.61257L20.3675 5.49006C21.6626 5.05837 23 6.02231 23 7.38743V13.6126ZM3 6H15V11.1739C12.9596 11.6559 11.2907 13.0995 10.4982 15H3V6ZM21 12.8096C19.9446 11.7968 18.5481 11.1367 17 11.0189V8.72076L21 7.38743V12.8096ZM16.5 22C18.9853 22 21 19.9853 21 17.5C21 15.0147 18.9853 13 16.5 13C14.0147 13 12 15.0147 12 17.5C12 19.9853 14.0147 22 16.5 22Z" fill="#2C2A29"/>
</svg>
