<svg width="24" height="24" viewBox="0 0 24 24" fill="none" xmlns="http://www.w3.org/2000/svg">
<path d="M13.4797 4.12905L13.4797 4.12908L13.4797 4.12905ZM13.4797 4.12905C13.491 4.13952 13.5007 4.14861 13.5092 4.15649C13.5092 4.1565 13.5092 4.1565 13.5092 4.1565C13.5196 4.16627 13.5281 4.17419 13.535 4.18062L13.4797 4.12905ZM12.8529 3.50515L12.834 3.5254L12.8529 3.50515ZM12.8529 3.50515L12.8529 3.50513L12.8529 3.50515ZM13.0875 3.32933C13.1352 3.30344 13.1833 3.28226 13.2312 3.26528L12.9165 3.60285L12.834 3.52606L12.8602 3.49789C12.9014 3.45766 12.9823 3.38644 13.0875 3.32933ZM12.8336 3.52645L12.9161 3.6032L12.9154 3.60397L12.9149 3.60458L12.8323 3.52787L12.8329 3.52718L12.8336 3.52645ZM15.9611 9.08324C15.7907 8.34681 15.105 7.86369 14.3731 7.92662L14.2175 6.82595C15.2925 6.60374 16.2222 6.48965 17.0172 6.73086C17.3526 6.83264 17.5766 6.94706 17.7219 7.08131C19.0975 8.35294 19.9999 10.3068 19.9999 12.5258C19.9999 15.4636 18.596 18.4666 16.3586 20.3898C16.1315 20.585 15.8945 20.7649 15.649 20.9285C15.1595 21.2546 14.5213 21.2258 13.3914 21.1012L13.3674 21.0985C12.953 21.0528 12.4752 21 11.9999 21C11.5245 21 11.0466 21.0528 10.6323 21.0985L10.6083 21.1012C9.47843 21.2259 8.84023 21.2546 8.35073 20.9285C8.10464 20.7646 7.8672 20.5843 7.63965 20.3886C5.40321 18.4652 4 15.4629 4 12.5258C4 10.3931 4.8336 8.50528 6.11979 7.2327C6.41709 7.38673 6.73502 7.50422 7.06713 7.58048L8.97089 8.0176C8.51774 8.18879 8.15577 8.57592 8.03836 9.08327L9.01261 9.30872L8.03836 9.08327C7.85159 9.89037 8.35446 10.6961 9.16156 10.8828L9.40701 10.9396C11.113 11.3344 12.8867 11.3344 14.5927 10.9396L14.838 10.8828C15.6451 10.696 16.1479 9.89033 15.9611 9.08324ZM11.5832 6.05213L11.5832 6.05237L10.9131 5.89851L7.6266 5.14388C7.22624 5.05195 6.88057 4.80096 6.66922 4.44872C6.26884 3.78141 6.42309 3.11508 6.86377 2.65735C7.31628 2.18733 8.00812 2.00407 8.66659 2.3333C8.88443 2.44222 9.07477 2.60283 9.218 2.79979L10.4635 4.51256L11.3243 5.69626L12.1141 4.4641C12.1273 4.44352 12.1405 4.42323 12.1537 4.40323C11.9884 4.65455 11.8276 4.93818 11.7172 5.22336C11.6069 5.50821 11.5469 5.79474 11.5832 6.05213Z" fill="#2C2A29" stroke="#2C2A29" stroke-width="2"/>
</svg>
