<svg width="24" height="24" viewBox="0 0 24 24" fill="none" xmlns="http://www.w3.org/2000/svg">
<path fill-rule="evenodd" clip-rule="evenodd" d="M13.5649 4.20787C13.5649 4.20787 13.5647 4.20813 12.86 3.55108L13.5649 4.20787L13.5578 4.21561C13.5507 4.22343 13.539 4.2364 13.5235 4.25402C13.4923 4.28936 13.446 4.34296 13.39 4.41112C13.2768 4.54883 13.1297 4.73896 12.9892 4.95269C12.8462 5.17011 12.7255 5.38854 12.6497 5.58438C12.5692 5.79225 12.5708 5.89405 12.5734 5.91239L12.6077 6.15529C12.6456 6.14836 12.6833 6.14079 12.7208 6.1326C12.8839 6.09693 13.0495 6.0594 13.2169 6.02144C14.5608 5.71677 16.0251 5.38481 17.3075 5.77392C17.7056 5.89471 18.0952 6.06457 18.4007 6.34697C19.9879 7.81415 20.9999 10.0373 20.9999 12.5258C20.9999 15.7613 19.464 19.0391 17.0104 21.1481C16.7529 21.3695 16.4835 21.5742 16.2034 21.7608C15.3576 22.3242 14.3231 22.21 13.2817 22.0951C12.8514 22.0476 12.4198 22 11.9999 22C11.5799 22 11.1484 22.0476 10.7181 22.0951C9.67661 22.2101 8.64214 22.3242 7.79634 21.7608C7.51561 21.5738 7.2456 21.3686 6.9876 21.1467C4.5351 19.0375 3 15.7606 3 12.5258C3 10.0372 4.01212 7.81403 5.59941 6.34684C5.88759 6.08047 6.25055 5.91424 6.62493 5.79487C6.29572 5.58715 6.01598 5.30363 5.81173 4.96321C4.49161 2.76301 6.91554 0.339743 9.1138 1.43887C9.47369 1.61882 9.78847 1.88397 10.0268 2.21166L11.2723 3.92443C11.2876 3.90047 11.3029 3.87692 11.3181 3.85378C11.5083 3.56464 11.701 3.31625 11.8449 3.14115C11.9175 3.0529 11.9791 2.98153 12.0236 2.93099C12.046 2.90568 12.0641 2.88548 12.0774 2.87088L12.0935 2.85321L12.0987 2.84761L12.1013 2.84487C12.1013 2.84487 12.1019 2.84423 12.8333 3.52618L12.1013 2.84487C12.4779 2.44093 13.1113 2.41815 13.5152 2.79478C13.9188 3.17107 13.9412 3.80302 13.5657 4.20701L13.5649 4.20787ZM10.8612 8.08852L10.8514 8.08638C10.6528 8.04296 10.4648 8.00039 10.2843 7.95953C9.7153 7.83074 9.22131 7.71891 8.71038 7.65091C8.06158 7.56456 7.60596 7.58672 7.27312 7.68772C7.14618 7.72623 7.06202 7.76037 7.00712 7.78788C6.97398 7.80448 6.958 7.81546 6.9536 7.81865C5.79127 8.89486 5 10.5781 5 12.5258C5 15.1652 6.27132 17.8928 8.2917 19.6304C8.48879 19.7999 8.69367 19.9554 8.90512 20.0963C8.95913 20.1322 9.1164 20.214 9.6979 20.182C9.93804 20.1688 10.1784 20.1424 10.4814 20.109L10.6903 20.0862C11.0637 20.0458 11.5241 20 11.9999 20C12.4756 20 12.9361 20.0458 13.3094 20.0862L13.5184 20.109C13.8213 20.1424 14.0617 20.1688 14.3018 20.182C14.8833 20.214 15.0406 20.1322 15.0946 20.0963C15.3056 19.9557 15.51 19.8005 15.7067 19.6314C17.728 17.894 18.9999 15.1658 18.9999 12.5258C18.9999 10.5781 18.2087 8.89495 17.0464 7.81874C17.042 7.81555 17.026 7.80456 16.9929 7.78795C16.938 7.76043 16.8538 7.72629 16.7268 7.68776C16.3939 7.58675 15.9382 7.5646 15.2893 7.65096C14.7784 7.71896 14.2845 7.83074 13.7157 7.95948C13.535 8.00038 13.3467 8.04298 13.148 8.08644C13.0619 8.10526 12.9752 8.122 12.8879 8.13662L12.9901 8.85959C13.0112 9.00874 12.9983 9.15526 12.9571 9.29046C13.0633 9.27465 13.1692 9.2562 13.2747 9.2351L14.4017 9.00969C14.6724 8.95553 14.9359 9.13113 14.99 9.40191C15.0442 9.67269 14.8686 9.9361 14.5978 9.99026L13.4708 10.2157C12.4999 10.4099 11.5 10.4099 10.5291 10.2157L9.40168 9.99027C9.1309 9.93611 8.95529 9.6727 9.00944 9.40192C9.06359 9.13114 9.327 8.95553 9.59778 9.00968L10.7252 9.23514C10.8308 9.25626 10.9367 9.27472 11.043 9.29053C11.0283 9.24201 11.0172 9.19174 11.0098 9.13999L10.8612 8.08852ZM9.2033 4.47989L8.40923 3.38792C8.36106 3.32168 8.29515 3.26562 8.21938 3.22773C7.98464 3.11036 7.75799 3.16752 7.59532 3.33924C7.43529 3.50816 7.39819 3.72001 7.52672 3.93422C7.59817 4.05331 7.71504 4.13817 7.85039 4.16924L9.2033 4.47989Z" fill="#2C2A29"/>
</svg>
