<svg width="24" height="24" viewBox="0 0 24 24" fill="none" xmlns="http://www.w3.org/2000/svg">
<path d="M14.4001 9C14.4001 9.55228 14.8478 10 15.4001 10H19V20H5V10H8.6001C9.15238 10 9.6001 9.55228 9.6001 9C9.6001 8.44772 9.15238 8 8.6001 8H4V4H6.50335L7.30304 3.20294L8.50598 2H4C2.89543 2 2 2.89543 2 4V9C2 9.55228 2.44772 10 3 10V20C3 21.1046 3.89543 22 5 22H19C20.1046 22 21 21.1046 21 20V10C21.5523 10 22 9.55228 22 9V4C22 2.89543 21.1046 2 20 2H15.4942L16.6972 3.20294C16.6972 3.20294 17.083 3.53525 17.5156 4H20V8H15.4001C14.8478 8 14.4001 8.44772 14.4001 9Z" fill="#2C2A29"/>
<path fill-rule="evenodd" clip-rule="evenodd" d="M12.0001 14C12.4972 14 12.9001 13.5971 12.9001 13.1V4.07278L14.3637 5.53638C14.7152 5.88785 15.285 5.88785 15.6365 5.53638C15.988 5.18491 15.988 4.61506 15.6365 4.26359L12.6365 1.26359C12.285 0.91212 11.7152 0.91212 11.3637 1.26359L8.3637 4.26359C8.01223 4.61506 8.01223 5.18491 8.3637 5.53638C8.71517 5.88785 9.28502 5.88785 9.63649 5.53638L11.1001 4.07278V13.1C11.1001 13.5971 11.503 14 12.0001 14Z" fill="#2C2A29"/>
</svg>
