<svg width="24" height="24" viewBox="0 0 24 24" fill="none" xmlns="http://www.w3.org/2000/svg">
<path d="M10 12C10 11.4477 9.55228 11 9 11C8.44772 11 8 11.4477 8 12V13C8 13.5523 8.44772 14 9 14H15C15.5523 14 16 13.5523 16 13V12C16 11.4477 15.5523 11 15 11C14.4477 11 14 11.4477 14 12H10Z" />
<path fill-rule="evenodd" clip-rule="evenodd" d="M2 4C2 2.89543 2.89543 2 4 2H20C21.1046 2 22 2.89543 22 4V9C22 9.55228 21.5523 10 21 10V20C21 21.1046 20.1046 22 19 22H5C3.89543 22 3 21.1046 3 20V10C2.44772 10 2 9.55228 2 9V4ZM5 10H19V20H5V10ZM20 8H4V4H20V8Z" />
</svg>
