<svg width="24" height="24" viewBox="0 0 24 24" fill="none" xmlns="http://www.w3.org/2000/svg">
<path d="M18.0655 10.032C18.0655 9.80015 17.9755 9.56803 17.7983 9.39132L12.6727 4.26574C12.3184 3.91142 11.7447 3.91142 11.3913 4.26574L6.26574 9.39132C5.91142 9.74564 5.91142 10.3193 6.26574 10.6727L6.34361 10.7506C6.69793 11.1049 7.2716 11.1049 7.62501 10.7506L11.1258 7.24976V19.0938C11.1258 19.594 11.5318 20 12.032 20C12.5322 20 12.9382 19.594 12.9382 19.0938L12.9382 7.24976L16.439 10.7506C16.7933 11.1049 17.367 11.1049 17.7204 10.7506L17.7983 10.6727C17.9755 10.4956 18.0655 10.2639 18.0655 10.032Z" />
</svg>
