<svg width="24" height="24" viewBox="0 0 24 24" fill="none" xmlns="http://www.w3.org/2000/svg">
<path d="M10.0647 5.96723C9.83286 5.96723 9.60074 6.05732 9.42403 6.23448L4.29845 11.3601C3.94414 11.7144 3.94414 12.288 4.29845 12.6415L9.42403 17.767C9.77835 18.1214 10.352 18.1214 10.7054 17.767L10.7833 17.6892C11.1376 17.3348 11.1376 16.7612 10.7833 16.4078L7.28248 12.9069L19.1265 12.9069C19.6267 12.9069 20.0327 12.501 20.0327 12.0008C20.0327 11.5005 19.6267 11.0946 19.1265 11.0946L7.28248 11.0946L10.7833 7.59375C11.1376 7.23943 11.1376 6.66576 10.7833 6.31235L10.7054 6.23448C10.5283 6.05732 10.2966 5.96723 10.0647 5.96723Z" />
</svg>
