<svg width="24" height="24" viewBox="0 0 24 24" fill="none" xmlns="http://www.w3.org/2000/svg">
<path fill-rule="evenodd" clip-rule="evenodd" d="M6.1001 7.00001C6.1001 6.50295 6.50304 6.10001 7.0001 6.10001H10.0001C10.4972 6.10001 10.9001 6.50295 10.9001 7.00001C10.9001 7.49706 10.4972 7.90001 10.0001 7.90001H7.9001V16.8272L9.3637 15.3636C9.71517 15.0121 10.285 15.0121 10.6365 15.3636C10.988 15.7151 10.988 16.2849 10.6365 16.6364L7.63649 19.6364C7.28502 19.9879 6.71517 19.9879 6.3637 19.6364L3.3637 16.6364C3.01223 16.2849 3.01223 15.7151 3.3637 15.3636C3.71517 15.0121 4.28502 15.0121 4.63649 15.3636L6.1001 16.8272V7.00001Z" fill="#2C2A29"/>
<path fill-rule="evenodd" clip-rule="evenodd" d="M17.9001 17C17.9001 17.4971 17.4972 17.9 17.0001 17.9H14.0001C13.503 17.9 13.1001 17.4971 13.1001 17C13.1001 16.5029 13.503 16.1 14.0001 16.1H16.1001V7.1728L14.6365 8.6364C14.285 8.98787 13.7152 8.98787 13.3637 8.6364C13.0122 8.28493 13.0122 7.71508 13.3637 7.36361L16.3637 4.36361C16.7152 4.01214 17.285 4.01214 17.6365 4.36361L20.6365 7.36361C20.988 7.71508 20.988 8.28493 20.6365 8.6364C20.285 8.98787 19.7152 8.98787 19.3637 8.6364L17.9001 7.1728V17Z" fill="#2C2A29"/>
</svg>
