<svg width="24" height="24" viewBox="0 0 24 24" fill="none" xmlns="http://www.w3.org/2000/svg">
<path d="M14.0007 5.96723C14.2326 5.96723 14.4647 6.05732 14.6414 6.23448L19.767 11.3601C20.1213 11.7144 20.1213 12.288 19.767 12.6415L14.6414 17.767C14.2871 18.1214 13.7134 18.1214 13.36 17.767L13.2821 17.6892C12.9278 17.3348 12.9278 16.7612 13.2821 16.4078L16.783 12.9069L4.9389 12.9069C4.43868 12.9069 4.03272 12.501 4.03272 12.0008C4.03272 11.5005 4.43868 11.0946 4.9389 11.0946L16.783 11.0946L13.2821 7.59375C12.9278 7.23943 12.9278 6.66576 13.2821 6.31235L13.36 6.23448C13.5372 6.05732 13.7688 5.96723 14.0007 5.96723Z" />
</svg>
