<svg width="24" height="24" viewBox="0 0 24 24" fill="none" xmlns="http://www.w3.org/2000/svg">
<path d="M18.0655 13.968C18.0655 14.1999 17.9755 14.432 17.7983 14.6087L12.6727 19.7343C12.3184 20.0886 11.7447 20.0886 11.3913 19.7343L6.26574 14.6087C5.91142 14.2544 5.91142 13.6807 6.26574 13.3273L6.34361 13.2494C6.69793 12.8951 7.2716 12.8951 7.62501 13.2494L11.1258 16.7502V4.90618C11.1258 4.40597 11.5318 4 12.032 4C12.5322 4 12.9382 4.40597 12.9382 4.90618L12.9382 16.7502L16.439 13.2494C16.7933 12.8951 17.367 12.8951 17.7204 13.2494L17.7983 13.3273C17.9755 13.5044 18.0655 13.7361 18.0655 13.968Z" />
</svg>
