<svg width="24" height="24" viewBox="0 0 24 24" fill="none" xmlns="http://www.w3.org/2000/svg">
<path d="M15.202 3.98208C14.1112 3.35235 12.4301 3.78303 11.5369 5.33015L6.5369 13.9904C5.43233 15.9036 6.08783 18.3499 8.001 19.4545C9.91417 20.5591 12.3605 19.9036 13.4651 17.9904L16.9651 11.9282C17.2412 11.4499 17.8528 11.2861 18.3311 11.5622C18.8094 11.8383 18.9733 12.4499 18.6972 12.9282L15.1972 18.9904C13.5403 21.8602 9.87076 22.8434 7.001 21.1866C4.13125 19.5297 3.14799 15.8602 4.80485 12.9904L9.80485 4.33015C11.1208 2.05093 13.9446 0.946757 16.202 2.25002C18.4593 3.55329 18.915 6.55093 17.5991 8.83015L12.5991 17.4904C11.7707 18.9253 9.93588 19.4169 8.501 18.5885C7.06612 17.7601 6.5745 15.9253 7.40293 14.4904L12.4029 5.83015C12.6791 5.35186 13.2907 5.18798 13.769 5.46413C14.2472 5.74027 14.4111 6.35186 14.135 6.83015L9.13498 15.4904C8.85883 15.9687 9.02271 16.5803 9.501 16.8564C9.97929 17.1326 10.5909 16.9687 10.867 16.4904L15.867 7.83015C16.7603 6.28303 16.2927 4.6118 15.202 3.98208Z" />
</svg>
