<svg width="24" height="24" viewBox="0 0 24 24" fill="none" xmlns="http://www.w3.org/2000/svg">
<path d="M20.7067 3.29248C20.8879 3.47347 21 3.72364 21 4C21 3.73478 20.8946 3.48043 20.7071 3.29289C20.707 3.29275 20.7068 3.29261 20.7067 3.29248ZM20.7067 3.29248C20.5258 3.11176 20.2759 3 20 3C20.265 3 20.5192 3.1052 20.7067 3.29248ZM3.30373 20.7178C3.49017 20.8986 3.73986 21 4 21C3.72933 21 3.48377 20.8925 3.30373 20.7178ZM4 7C3.44772 7 3 7.44772 3 8L3 20V6C3 6.55228 3.44772 7 4 7ZM21 8C21 7.44772 20.5523 7 20 7C20.5523 7 21 6.55228 21 6V8ZM23 17.5C23 20.5376 20.5376 23 17.5 23C14.4624 23 12 20.5376 12 17.5C12 14.4624 14.4624 12 17.5 12C20.5376 12 23 14.4624 23 17.5ZM19.5 15C19.5 13.8954 18.6046 13 17.5 13C16.3954 13 15.5 13.8954 15.5 15V17.1716L14.5858 18.0858C13.8047 18.8668 13.8047 20.1332 14.5858 20.9142C15.3668 21.6953 16.6332 21.6953 17.4142 20.9142L18.9142 19.4142L18.2071 18.7071L18.9142 19.4142C19.2893 19.0391 19.5 18.5304 19.5 18V15Z" fill="#2C2A29" stroke="#2C2A29" stroke-width="2" stroke-linecap="round" stroke-linejoin="round"/>
</svg>
