<svg width="24" height="24" viewBox="0 0 24 24" fill="none" xmlns="http://www.w3.org/2000/svg">
<path d="M10.9999 3C10.9999 2.44772 11.4476 2 11.9999 2C14.0894 2 16.1263 2.65448 17.8247 3.87153C19.5231 5.08858 20.7976 6.80706 21.4692 8.7856C22.1409 10.7642 22.1759 12.9034 21.5693 14.9028C20.9628 16.9023 19.7452 18.6616 18.0876 19.9335C16.4299 21.2055 14.4154 21.9263 12.3271 21.9946C10.2388 22.063 8.18154 21.4755 6.44424 20.3147C4.70694 19.1539 3.37688 17.478 2.64088 15.5225C2.05862 13.9755 1.87129 12.3149 2.08618 10.6894L1.09586 10.1912C0.752025 10.0182 0.724383 9.53786 1.04611 9.32658L4.36997 7.14374C4.69169 6.93245 5.12149 7.14868 5.14361 7.53294L5.37207 11.5029C5.39418 11.8872 4.99203 12.1513 4.64819 11.9783L4.00734 11.6559C3.96122 12.7273 4.13074 13.8032 4.51269 14.818C5.10149 16.3824 6.16554 17.7231 7.55538 18.6518C8.94522 19.5804 10.591 20.0504 12.2617 19.9957C13.9323 19.941 15.5439 19.3644 16.87 18.3468C18.1962 17.3293 19.1702 15.9218 19.6555 14.3223C20.1407 12.7227 20.1127 11.0113 19.5754 9.42848C19.0381 7.84564 18.0185 6.47087 16.6598 5.49723C15.301 4.52359 13.6715 4 11.9999 4C11.4476 4 10.9999 3.55228 10.9999 3Z" fill="#2C2A29"/>
<path d="M9.44524 6.66795C9.90476 6.3616 10.5256 6.48577 10.832 6.9453L13.832 11.4453C14.0735 11.8076 14.0528 12.2846 13.7808 12.6247L11.7808 15.1247C11.4358 15.556 10.8065 15.6259 10.3752 15.2809C9.94398 14.9359 9.87406 14.3066 10.2191 13.8753L11.7623 11.9463L9.16788 8.0547C8.86153 7.59517 8.98571 6.9743 9.44524 6.66795Z" fill="#2C2A29"/>
</svg>
