<svg width="24" height="24" viewBox="0 0 24 24" fill="none" xmlns="http://www.w3.org/2000/svg">
<path d="M15.0615 19.391C13.5997 19.9965 11.9911 20.155 10.4393 19.8463C8.9069 19.5415 7.49776 18.7947 6.3854 17.6988L6.02624 17.9347C5.70451 18.146 5.27471 17.9297 5.2526 17.5455L5.08438 14.6223C5.06226 14.238 5.46442 13.9739 5.80826 14.1469L8.42389 15.4628C8.76773 15.6358 8.79537 16.1161 8.47365 16.3274L8.10873 16.5671C8.88628 17.2296 9.82239 17.6844 10.8295 17.8847C11.9933 18.1162 13.1997 17.9974 14.2961 17.5433C15.3925 17.0891 16.3295 16.3201 16.9888 15.3334C17.6481 14.3467 18 13.1867 18 12C18 11.4477 18.4477 11 19 11C19.5523 11 20 11.4477 20 12C20 13.5822 19.5308 15.129 18.6518 16.4446C17.7727 17.7602 16.5233 18.7855 15.0615 19.391Z" fill="#2C2A29"/>
<path d="M13.5607 4.15372C12.0089 3.84504 10.4003 4.00347 8.93853 4.60897C7.47672 5.21447 6.22729 6.23985 5.34824 7.55544C4.46919 8.87104 4 10.4178 4 12C4 12.5523 4.44772 13 5 13C5.55229 13 6 12.5523 6 12C6 10.8133 6.35189 9.65328 7.01118 8.66658C7.67047 7.67989 8.60754 6.91085 9.7039 6.45673C10.8003 6.0026 12.0067 5.88378 13.1705 6.11529C14.1776 6.31561 15.1137 6.77043 15.8913 7.43294L15.5264 7.67259C15.2046 7.88387 15.2323 8.3642 15.5761 8.53719L18.1917 9.85308C18.5356 10.0261 18.9377 9.76195 18.9156 9.37769L18.7474 6.45454C18.7253 6.07028 18.2955 5.85405 17.9738 6.06533L17.6146 6.3012C16.5022 5.20528 15.0931 4.45853 13.5607 4.15372Z" fill="#2C2A29"/>
</svg>
