<svg width="24" height="24" viewBox="0 0 24 24" fill="none" xmlns="http://www.w3.org/2000/svg">
<path d="M12.9 16.3C12.4582 15.9686 12.3687 15.3418 12.7001 14.9C13.0315 14.4581 13.6583 14.3686 14.1001 14.7L15.2542 15.5657L16.668 13.4453C16.9743 12.9857 17.5952 12.8616 18.0547 13.168C18.5142 13.4743 18.6384 14.0952 18.332 14.5547L16.3319 17.5547C16.1794 17.7834 15.9396 17.9392 15.6687 17.9856C15.3978 18.032 15.1197 17.9649 14.8998 17.8L12.9 16.3Z" />
<path fill-rule="evenodd" clip-rule="evenodd" d="M13.5544 9.29619C13.9331 8.67014 14.151 7.93599 14.151 7.15094C14.151 4.85844 12.2926 3 10.0001 3C7.70756 3 5.84912 4.85844 5.84912 7.15094C5.84912 9.44345 7.70756 11.3019 10.0001 11.3019C10.1936 11.3019 10.3841 11.2886 10.5706 11.263C10.371 11.495 10.1874 11.7413 10.0218 12.0001L9.99984 12.0001C6.99808 12.0001 4.30523 13.3227 2.47224 15.4169C2.17918 15.7517 2.17917 16.2484 2.47224 16.5833C4.30522 18.6775 6.9981 20.0002 9.9999 20.0002C10.2628 20.0002 10.5233 19.99 10.7811 19.9701C11.9657 21.2203 13.6418 22 15.5 22C19.0899 22 22 19.0899 22 15.5C22 11.9101 19.0899 9 15.5 9C14.8222 9 14.1687 9.10374 13.5544 9.29619ZM4.70799 16.0001C5.92324 14.927 7.46422 14.2193 9.1639 14.0431C9.05665 14.5115 9 14.9991 9 15.5C9 16.3799 9.17483 17.2189 9.49165 17.9843C7.6625 17.8699 6.00089 17.1417 4.70799 16.0001ZM10.0001 9.30189C11.188 9.30189 12.151 8.33888 12.151 7.15094C12.151 5.96301 11.188 5 10.0001 5C8.81213 5 7.84912 5.96301 7.84912 7.15094C7.84912 8.33888 8.81213 9.30189 10.0001 9.30189ZM15.5 20C17.9853 20 20 17.9853 20 15.5C20 13.0147 17.9853 11 15.5 11C13.0147 11 11 13.0147 11 15.5C11 17.9853 13.0147 20 15.5 20Z"/>
</svg>
