<svg width="24" height="24" viewBox="0 0 24 24" fill="none" xmlns="http://www.w3.org/2000/svg">
<path d="M18.3639 16.9497L13.4142 12L18.3639 7.05025C18.7542 6.65993 18.7542 6.02636 18.3639 5.63603C17.9736 5.24571 17.34 5.24571 16.9497 5.63603L12 10.5858L7.05022 5.63603C6.65989 5.24571 6.02633 5.24571 5.636 5.63603C5.24568 6.02636 5.24568 6.65993 5.636 7.05025L10.5858 12L5.636 16.9497C5.24568 17.3401 5.24568 17.9736 5.636 18.364C6.02633 18.7543 6.65989 18.7543 7.05022 18.364L12 13.4142L16.9497 18.364C17.34 18.7543 17.9736 18.7543 18.3639 18.364C18.7542 17.9736 18.7542 17.3401 18.3639 16.9497Z" />
</svg>
