<svg width="24" height="24" viewBox="0 0 24 24" fill="none" xmlns="http://www.w3.org/2000/svg">
<path fill-rule="evenodd" clip-rule="evenodd" d="M8.9043 15.3813H7.77637C7.53467 15.3813 7.38818 15.2202 7.38818 14.9858C7.38818 14.7588 7.53467 14.5977 7.77637 14.5977H8.9043V13.1621H7.77637C7.53467 13.1621 7.38086 12.9937 7.38086 12.7593C7.38086 12.5322 7.53467 12.3638 7.77637 12.3638H8.9043V7.58838C8.9043 6.97314 9.25586 6.60693 9.84912 6.60693H12.7056C14.7417 6.60693 16.082 7.99121 16.082 9.89551C16.082 11.7852 14.6978 13.1621 12.6323 13.1621H10.75V14.5977H13.3135C13.5552 14.5977 13.709 14.7588 13.709 14.9858C13.709 15.2202 13.5552 15.3813 13.3135 15.3813H10.75V16.1797C10.75 16.7583 10.3911 17.1245 9.82715 17.1245C9.26318 17.1245 8.9043 16.7583 8.9043 16.1797V15.3813ZM10.75 8.11572V11.7046H12.1636C13.5112 11.7046 14.1997 11.0161 14.1997 9.90283C14.1997 8.8042 13.5186 8.11572 12.1709 8.11572H10.75Z" fill="#2C2A29"/>
<path fill-rule="evenodd" clip-rule="evenodd" d="M22 12C22 17.5228 17.5228 22 12 22C6.47715 22 2 17.5228 2 12C2 6.47715 6.47715 2 12 2C17.5228 2 22 6.47715 22 12ZM20 12C20 16.4183 16.4183 20 12 20C7.58172 20 4 16.4183 4 12C4 7.58172 7.58172 4 12 4C16.4183 4 20 7.58172 20 12Z" fill="#2C2A29"/>
</svg>
