<svg width="24" height="24" viewBox="0 0 24 24" fill="none" xmlns="http://www.w3.org/2000/svg">
<path d="M13 7.83333C13 7.3731 12.5523 7 12 7C11.4477 7 11 7.3731 11 7.83333V13.25C11 13.7102 11.4477 14.0833 12 14.0833C12.5523 14.0833 13 13.7102 13 13.25V7.83333Z" fill="#2C2A29"/>
<path d="M13 15.75C13 15.2898 12.5523 14.9167 12 14.9167C11.4477 14.9167 11 15.2898 11 15.75V16.1667C11 16.6269 11.4477 17 12 17C12.5523 17 13 16.6269 13 16.1667V15.75Z" fill="#2C2A29"/>
<path fill-rule="evenodd" clip-rule="evenodd" d="M2 12C2 14.0696 2.77617 15.976 4.08082 17.4964L3.37849 20.1175C3.17925 20.8611 3.85966 21.5415 4.60323 21.3423L8.28064 20.3569C9.43036 20.7718 10.6856 21 12 21C17.5228 21 22 16.9706 22 12C22 7.02944 17.5228 3 12 3C6.47715 3 2 7.02944 2 12ZM6.01267 18.014C6.18358 17.3762 6.02863 16.6951 5.5986 16.1939C4.57922 15.006 4 13.5535 4 12C4 8.32701 7.3783 5 12 5C16.6217 5 20 8.32701 20 12C20 15.673 16.6217 19 12 19C10.9177 19 9.89213 18.8122 8.95947 18.4756C8.57517 18.337 8.15763 18.3193 7.763 18.4251L5.75863 18.9621L6.01267 18.014Z" fill="#2C2A29"/>
</svg>
