<svg width="24" height="24" viewBox="0 0 24 24" fill="none" xmlns="http://www.w3.org/2000/svg">
<path d="M12 1C10.3431 1 9 2.34315 9 4V4.5C9 5.05228 9.44772 5.5 10 5.5C10.5523 5.5 11 5.05228 11 4.5V4C11 3.44772 11.4477 3 12 3H18C18.5523 3 19 3.44772 19 4V14C19 14.5523 18.5523 15 18 15H17.5C16.9477 15 16.5 15.4477 16.5 16C16.5 16.5523 16.9477 17 17.5 17H18C19.6569 17 21 15.6569 21 14V4C21 2.34315 19.6569 1 18 1H12Z" fill="#2C2A29"/>
<path fill-rule="evenodd" clip-rule="evenodd" d="M6 7C4.34315 7 3 8.34315 3 10V20C3 21.6569 4.34315 23 6 23H12C13.6569 23 15 21.6569 15 20V10C15 8.34315 13.6569 7 12 7H6ZM5 10C5 9.44772 5.44772 9 6 9H12C12.5523 9 13 9.44772 13 10V20C13 20.5523 12.5523 21 12 21H6C5.44772 21 5 20.5523 5 20V10Z" fill="#2C2A29"/>
</svg>
