<svg width="24" height="24" viewBox="0 0 24 24" fill="none" xmlns="http://www.w3.org/2000/svg">
<path d="M6 4C5.44772 4 5 3.55228 5 3V2C5 1.44772 5.44772 1 6 1C6.55228 1 7 1.44772 7 2V3C7 3.55228 6.55228 4 6 4Z" fill="#2C2A29"/>
<path d="M2 7.00002L17 7V15C17 15.5523 17.4477 16 18 16C18.5523 16 19 15.5523 19 15V6C19 5.73478 18.8946 5.48043 18.7071 5.29289C18.5196 5.10536 18.2652 5 18 5L2 5.00002C1.44771 5.00002 1 5.44774 1 6.00002C1 6.55231 1.44772 7.00002 2 7.00002Z" fill="#2C2A29"/>
<path d="M22 17L7 17V9C7 8.44771 6.55229 8 6 8C5.44772 8 5 8.44771 5 9V18C5 18.2652 5.10536 18.5196 5.29289 18.7071C5.48043 18.8946 5.73479 19 6 19L22 19C22.5523 19 23 18.5523 23 18C23 17.4477 22.5523 17 22 17Z" fill="#2C2A29"/>
<path d="M17 22C17 22.5523 17.4477 23 18 23C18.5523 23 19 22.5523 19 22V21C19 20.4477 18.5523 20 18 20C17.4477 20 17 20.4477 17 21V22Z" fill="#2C2A29"/>
</svg>
