<svg width="24" height="24" viewBox="0 0 24 24" fill="none" xmlns="http://www.w3.org/2000/svg">
<path d="M7.19995 3.50001C7.19995 3.05818 7.55812 2.70001 7.99995 2.70001H16C16.4418 2.70001 16.8 3.05818 16.8 3.50001C16.8 3.94184 16.4418 4.30001 16 4.30001H7.99995C7.55812 4.30001 7.19995 3.94184 7.19995 3.50001Z" />
<path d="M13.2 16C13.2 16.4418 13.5581 16.8 14 16.8C14.4418 16.8 14.8 16.4418 14.8 16V11C14.8 10.5582 14.4418 10.2 14 10.2C13.5581 10.2 13.2 10.5582 13.2 11V16Z" />
<path d="M9.99995 16.8C9.55812 16.8 9.19995 16.4418 9.19995 16V11C9.19995 10.5582 9.55812 10.2 9.99995 10.2C10.4418 10.2 10.8 10.5582 10.8 11L10.8 16C10.8 16.4418 10.4418 16.8 9.99995 16.8Z" />
<path fill-rule="evenodd" clip-rule="evenodd" d="M4.99995 6.20001C4.55812 6.20001 4.19995 6.55818 4.19995 7.00001C4.19995 7.44184 4.55812 7.80001 4.99995 7.80001H5.19995V18C5.19995 19.5464 6.45355 20.8 7.99995 20.8H16C17.5463 20.8 18.8 19.5464 18.8 18V7.80001H19C19.4418 7.80001 19.8 7.44184 19.8 7.00001C19.8 6.55818 19.4418 6.20001 19 6.20001H4.99995ZM17.2 7.80001H6.79995V18C6.79995 18.6628 7.33721 19.2 7.99995 19.2H16C16.6627 19.2 17.2 18.6628 17.2 18V7.80001Z" />
</svg>
