<svg width="24" height="24" viewBox="0 0 24 24" fill="none" xmlns="http://www.w3.org/2000/svg">
<path fill-rule="evenodd" clip-rule="evenodd" d="M13.3322 23C12.0865 23 11.4842 21.9809 11.2113 21.4743C11.2047 21.462 11.1983 21.4496 11.1923 21.4371C10.3549 19.7139 9.14646 18.1989 7.65511 17H4C2.89543 17 2 16.1046 2 15V5C2 3.89543 2.89543 3 4 3L16.8172 3.00021C17.4918 2.99233 18.1504 3.20601 18.6918 3.60859C19.2354 4.01273 19.6306 4.58474 19.8162 5.23615L19.822 5.25733L21.9128 13.2572L21.9183 13.2792C22.0255 13.7308 22.0272 14.2011 21.9233 14.6535C21.8195 15.1059 21.6128 15.5282 21.3195 15.8878C21.0261 16.2476 20.6539 16.535 20.2317 16.7277C19.8144 16.9182 19.3594 17.0113 18.901 17.0001H14.7602C15.0506 17.7826 15.2123 18.4629 15.2914 19.0584C15.4168 20.0027 15.3273 20.6884 15.2625 21.1415L15.2618 21.1466C15.2044 21.5334 15.0613 21.9786 14.7509 22.347C14.4146 22.7459 13.9237 23 13.3322 23ZM9 5.00021H16.8236L16.8378 5.00011C17.0756 4.99673 17.3078 5.07178 17.4985 5.21356C17.6867 5.35351 17.8241 5.55076 17.8902 5.7754L19.9745 13.7502C20.0086 13.9001 20.0085 14.0559 19.9741 14.2059C19.9389 14.359 19.869 14.5019 19.7697 14.6237C19.6703 14.7455 19.5441 14.8431 19.401 14.9084C19.258 14.9737 19.1017 15.0052 18.9445 15.0005C18.9389 15.0004 18.9334 15.0002 18.9278 15.0002C18.9234 15.0001 18.9189 15.0001 18.9145 15.0001H13.2322C12.8855 15.0001 12.5637 15.1796 12.3815 15.4744C12.1993 15.7693 12.1827 16.1374 12.3378 16.4474C12.9665 17.7043 13.218 18.638 13.3088 19.3217C13.3983 19.9956 13.3382 20.4692 13.2831 20.8556C13.2773 20.8941 13.27 20.9276 13.2622 20.9561C13.19 20.8864 13.0999 20.7608 12.9814 20.543C12.0325 18.5976 10.6735 16.8829 9 15.5156V5.00021ZM4 15H7V5H4V15Z" fill="#2C2A29"/>
</svg>
