<svg width="24" height="24" viewBox="0 0 24 24" fill="none" xmlns="http://www.w3.org/2000/svg">
<path d="M9.0001 11C8.44781 11 8.0001 11.4477 8.0001 12C8.0001 12.5523 8.44781 13 9.0001 13H12.0001C12.5524 13 13.0001 12.5523 13.0001 12C13.0001 11.4477 12.5524 11 12.0001 11H9.0001Z" fill="#2C2A29"/>
<path d="M8.0001 8.00001C8.0001 7.44772 8.44781 7.00001 9.0001 7.00001H15.0001C15.5524 7.00001 16.0001 7.44772 16.0001 8.00001C16.0001 8.55229 15.5524 9.00001 15.0001 9.00001H9.0001C8.44781 9.00001 8.0001 8.55229 8.0001 8.00001Z" fill="#2C2A29"/>
<path d="M9.0001 15C8.44781 15 8.0001 15.4477 8.0001 16C8.0001 16.5523 8.44781 17 9.0001 17H14.0001C14.5524 17 15.0001 16.5523 15.0001 16C15.0001 15.4477 14.5524 15 14.0001 15H9.0001Z" fill="#2C2A29"/>
<path fill-rule="evenodd" clip-rule="evenodd" d="M6.0001 2.10001C4.95076 2.10001 4.1001 2.95067 4.1001 4.00001V20C4.1001 21.0493 4.95076 21.9 6.0001 21.9H18.0001C19.0494 21.9 19.9001 21.0493 19.9001 20V4.00001C19.9001 2.95066 19.0494 2.10001 18.0001 2.10001H6.0001ZM5.9001 4.00001C5.9001 3.94478 5.94487 3.90001 6.0001 3.90001H18.0001C18.0553 3.90001 18.1001 3.94478 18.1001 4.00001V20C18.1001 20.0552 18.0553 20.1 18.0001 20.1H6.0001C5.94487 20.1 5.9001 20.0552 5.9001 20V4.00001Z" fill="#2C2A29"/>
</svg>
