<svg width="24" height="24" viewBox="0 0 24 24" fill="none" xmlns="http://www.w3.org/2000/svg">
<path fill-rule="evenodd" clip-rule="evenodd" d="M5.9001 4.00001C5.9001 3.94478 5.94487 3.90001 6.0001 3.90001H12.1001V8.30001C12.1001 9.34935 12.9508 10.2 14.0001 10.2H18.1001V20C18.1001 20.0552 18.0553 20.1 18.0001 20.1H16.6709C16.5976 20.2111 16.5121 20.3165 16.4143 20.4142L14.9285 21.9H18.0001C19.0494 21.9 19.9001 21.0493 19.9001 20V9.30001C19.9001 9.06891 19.8112 8.84666 19.6518 8.67932L13.6518 2.37932C13.482 2.20095 13.2464 2.10001 13.0001 2.10001H6.0001C4.95076 2.10001 4.1001 2.95067 4.1001 4.00001V20C4.1001 21.0493 4.95076 21.9 6.0001 21.9H9.07167L7.58588 20.4142C7.48812 20.3165 7.40259 20.2111 7.32929 20.1H6.0001C5.94487 20.1 5.9001 20.0552 5.9001 20V4.00001ZM16.9001 8.40001L13.9001 5.25001V8.30001C13.9001 8.35523 13.9449 8.40001 14.0001 8.40001H16.9001Z" fill="#2C2A29"/>
<path fill-rule="evenodd" clip-rule="evenodd" d="M12.0001 12.1C12.4972 12.1 12.9001 12.503 12.9001 13V19.8272L14.3637 18.3636C14.7152 18.0121 15.285 18.0121 15.6365 18.3636C15.988 18.7151 15.988 19.2849 15.6365 19.6364L12.6365 22.6364C12.285 22.9879 11.7152 22.9879 11.3637 22.6364L8.3637 19.6364C8.01223 19.2849 8.01223 18.7151 8.3637 18.3636C8.71517 18.0121 9.28502 18.0121 9.63649 18.3636L11.1001 19.8272V13C11.1001 12.503 11.503 12.1 12.0001 12.1Z" fill="#2C2A29"/>
</svg>
