<svg width="24" height="24" viewBox="0 0 24 24" fill="none" xmlns="http://www.w3.org/2000/svg">
<path d="M18.0655 9.96797C18.0655 10.1998 17.9755 10.432 17.7983 10.6087L12.6727 15.7343C12.3184 16.0886 11.7447 16.0886 11.3913 15.7343L6.26574 10.6087C5.91142 10.2544 5.91142 9.68069 6.26574 9.32728L6.34361 9.2494C6.69793 8.89508 7.2716 8.89508 7.62501 9.2494L11.1258 12.7502V3.99999C11.1258 3.49978 11.5318 3.09381 12.032 3.09381C12.5322 3.09381 12.9382 3.49978 12.9382 3.99999L12.9382 12.7502L16.439 9.2494C16.7933 8.89508 17.367 8.89508 17.7204 9.2494L17.7983 9.32728C17.9755 9.50443 18.0655 9.7361 18.0655 9.96797Z" fill="#2C2A29"/>
<path fill-rule="evenodd" clip-rule="evenodd" d="M5 20C5 19.4477 5.44772 19 6 19L18 19C18.5523 19 19 19.4477 19 20C19 20.5523 18.5523 21 18 21H6C5.44772 21 5 20.5523 5 20Z" fill="#2C2A29"/>
</svg>
