<svg width="24" height="24" viewBox="0 0 24 24" fill="none" xmlns="http://www.w3.org/2000/svg">
<path fill-rule="evenodd" clip-rule="evenodd" d="M12 4C7.58172 4 4 7.58172 4 12C4 16.4183 7.58172 20 12 20C16.4183 20 20 16.4183 20 12C20 7.58172 16.4183 4 12 4ZM2 12C2 6.47715 6.47715 2 12 2C17.5228 2 22 6.47715 22 12C22 17.5228 17.5228 22 12 22C6.47715 22 2 17.5228 2 12Z" fill="#2C2A29" fill-opacity="0.1"/>
<path fill-rule="evenodd" clip-rule="evenodd" d="M8.36394 8.36394C8.75446 7.97341 9.38763 7.97341 9.77815 8.36394L12.0711 10.6568L14.364 8.36394C14.7545 7.97341 15.3877 7.97341 15.7782 8.36394C16.1687 8.75446 16.1687 9.38763 15.7782 9.77815L13.4853 12.0711L15.7782 14.364C16.1687 14.7545 16.1687 15.3877 15.7782 15.7782C15.3877 16.1687 14.7545 16.1687 14.364 15.7782L12.0711 13.4853L9.77815 15.7782C9.38763 16.1687 8.75446 16.1687 8.36394 15.7782C7.97341 15.3877 7.97341 14.7545 8.36394 14.364L10.6568 12.0711L8.36394 9.77815C7.97341 9.38763 7.97341 8.75446 8.36394 8.36394Z" fill="#2C2A29"/>
<path fill-rule="evenodd" clip-rule="evenodd" d="M17.8248 3.87153C16.1264 2.65448 14.0894 2 12 2C11.4477 2 11 2.44772 11 3C11 3.55228 11.4477 4 12 4C13.6715 4 15.3011 4.52359 16.6598 5.49723C18.0185 6.47087 19.0381 7.84565 19.5754 9.42848C20.1127 11.0113 20.1407 12.7227 19.6555 14.3223C19.1703 15.9218 18.1962 17.3293 16.8701 18.3468C15.544 19.3644 13.9324 19.941 12.2618 19.9957C10.5911 20.0504 8.94528 19.5804 7.55544 18.6518C6.1656 17.7231 5.10155 16.3824 4.51275 14.818C3.92395 13.2536 3.83997 11.544 4.27259 9.92945C4.41553 9.39598 4.09895 8.84764 3.56549 8.7047C3.03202 8.56176 2.48368 8.87834 2.34074 9.41181C1.79996 11.43 1.90494 13.567 2.64094 15.5225C3.37695 17.478 4.707 19.1539 6.4443 20.3147C8.1816 21.4755 10.2389 22.063 12.3272 21.9946C14.4155 21.9263 16.43 21.2055 18.0876 19.9335C19.7453 18.6616 20.9629 16.9023 21.5694 14.9028C22.1759 12.9034 22.1409 10.7642 21.4693 8.78561C20.7977 6.80706 19.5232 5.08858 17.8248 3.87153Z" fill="#2C2A29"/>
</svg>
