<svg width="24" height="24" viewBox="0 0 24 24" fill="none" xmlns="http://www.w3.org/2000/svg">
<path fill-rule="evenodd" clip-rule="evenodd" d="M18.0176 3C17.2267 3 16.4681 3.31421 15.9088 3.87352L4.22742 15.5549C4.09926 15.683 4.00834 15.8436 3.96439 16.0194L3.02988 19.7575C2.94468 20.0982 3.04453 20.4587 3.29291 20.7071C3.54129 20.9555 3.90178 21.0553 4.24256 20.9701L7.98059 20.0356C8.15642 19.9917 8.317 19.9008 8.44516 19.7726L20.1265 8.09126C20.4034 7.81432 20.6231 7.48554 20.773 7.1237C20.9229 6.76186 21 6.37404 21 5.98239C21 5.59074 20.9229 5.20292 20.773 4.84108C20.6231 4.47924 20.4034 4.15046 20.1265 3.87352C19.8496 3.59658 19.5208 3.3769 19.1589 3.22702C18.7971 3.07714 18.4093 3 18.0176 3ZM17.323 5.28773C17.5072 5.1035 17.7571 5 18.0176 5C18.1466 5 18.2744 5.02541 18.3936 5.07478C18.5128 5.12415 18.6211 5.19651 18.7123 5.28773C18.8035 5.37896 18.8759 5.48726 18.9252 5.60645C18.9746 5.72563 19 5.85338 19 5.98239C19 6.1114 18.9746 6.23914 18.9252 6.35833C18.8759 6.47752 18.8035 6.58582 18.7123 6.67704L8.44519 16.9441L7.05588 15.5548L17.323 5.28773ZM5.75916 17.0865L5.37439 18.6256L6.91349 18.2409L5.75916 17.0865Z" fill="#2C2A29"/>
</svg>
