<svg width="24" height="24" viewBox="0 0 24 24" fill="none" xmlns="http://www.w3.org/2000/svg">
<path fill-rule="evenodd" clip-rule="evenodd" d="M12.0001 5C7.41144 5 3.37884 7.37818 1.06668 10.9645C0.660064 11.5952 0.660063 12.4048 1.06668 13.0355C3.37884 16.6218 7.41144 19 12.0001 19C16.5888 19 20.6214 16.6218 22.9335 13.0355C23.3401 12.4048 23.3401 11.5952 22.9335 10.9645C20.6214 7.37818 16.5888 5 12.0001 5ZM7.60881 16.0887C5.62717 15.225 3.94898 13.7943 2.7789 12C3.94898 10.2057 5.62717 8.775 7.60881 7.91132C6.61069 8.98283 6.00005 10.4201 6.00005 12C6.00005 13.5799 6.61069 15.0172 7.60881 16.0887ZM16.3912 16.0888C18.3729 15.2251 20.0512 13.7943 21.2213 12C20.0512 10.2057 18.3729 8.77492 16.3912 7.91124C17.3894 8.98276 18 10.4201 18 12C18 13.5799 17.3894 15.0172 16.3912 16.0888ZM16.0001 12C16.0001 14.2091 14.2092 16 12.0001 16C9.79091 16 8.00005 14.2091 8.00005 12C8.00005 9.79086 9.79091 8 12.0001 8C14.2092 8 16.0001 9.79086 16.0001 12Z" fill="#2C2A29"/>
</svg>
