<svg width="24" height="24" viewBox="0 0 24 24" fill="none" xmlns="http://www.w3.org/2000/svg">
<g opacity="0.4">
<path d="M15.6517 5.51997C14.4933 5.18155 13.2679 5 12.0001 5C7.41144 5 3.37884 7.37818 1.06668 10.9645C0.660064 11.5952 0.660063 12.4048 1.06668 13.0355C1.97789 14.4488 3.1563 15.6746 4.53064 16.641L5.97005 15.2016C4.69867 14.3667 3.61046 13.2752 2.7789 12C3.94898 10.2057 5.62717 8.775 7.60881 7.91132C6.61069 8.98283 6.00005 10.4201 6.00005 12C6.00005 12.9263 6.20996 13.8036 6.58481 14.5869L8.13555 13.0361C8.04717 12.7057 8.00005 12.3583 8.00005 12C8.00005 9.79086 9.79091 8 12.0001 8C12.3584 8 12.7057 8.04712 13.0362 8.13549L15.6517 5.51997Z" fill="#2C2A29"/>
<path d="M10.964 15.8645C11.2944 15.9529 11.6417 16 12.0001 16C14.2092 16 16.0001 14.2091 16.0001 12C16.0001 11.6417 15.9529 11.2944 15.8646 10.9639L17.4153 9.4132C17.7901 10.1965 18 11.0737 18 12C18 13.5799 17.3894 15.0172 16.3912 16.0888C18.3729 15.2251 20.0512 13.7943 21.2213 12C20.3897 10.7248 19.3015 9.63326 18.0301 8.79838L19.4695 7.35897C20.8439 8.32544 22.0223 9.55116 22.9335 10.9645C23.3401 11.5952 23.3401 12.4048 22.9335 13.0355C20.6214 16.6218 16.5888 19 12.0001 19C10.7323 19 9.50687 18.8184 8.34849 18.48L10.964 15.8645Z" fill="#2C2A29"/>
</g>
<path fill-rule="evenodd" clip-rule="evenodd" d="M19.9549 4.04507C20.2478 4.33796 20.2478 4.81284 19.9549 5.10573L5.10565 19.955C4.81276 20.2479 4.33788 20.2479 4.04499 19.955C3.7521 19.6621 3.7521 19.1872 4.04499 18.8943L18.8942 4.04507C19.1871 3.75218 19.662 3.75218 19.9549 4.04507Z" fill="#2C2A29"/>
</svg>
