<svg width="24" height="24" viewBox="0 0 24 24" fill="none" xmlns="http://www.w3.org/2000/svg">
<path d="M2 5C2 3.34315 3.34315 2 5 2H7C7.55228 2 8 2.44772 8 3C8 3.55228 7.55228 4 7 4H5C4.44772 4 4 4.44772 4 5V7C4 7.55228 3.55228 8 3 8C2.44772 8 2 7.55228 2 7V5Z" fill="#2C2A29"/>
<path d="M10 7C10.5523 7 11 7.44772 11 8V10C11 10.5523 10.5523 11 10 11C9.44772 11 9 10.5523 9 10V8C9 7.44772 9.44772 7 10 7Z" fill="#2C2A29"/>
<path d="M14 7C14.5523 7 15 7.44772 15 8V10C15 10.5523 14.5523 11 14 11C13.4477 11 13 10.5523 13 10V8C13 7.44772 13.4477 7 14 7Z" fill="#2C2A29"/>
<path d="M8.8 13.4C8.46863 12.9582 7.84183 12.8686 7.4 13.2C6.95817 13.5314 6.86863 14.1582 7.2 14.6C7.79467 15.3929 8.4713 16.0086 9.29081 16.4184C10.1103 16.8281 11.0089 17 12 17C12.9911 17 13.8897 16.8281 14.7092 16.4184C15.5287 16.0086 16.2053 15.3929 16.8 14.6C17.1314 14.1582 17.0418 13.5314 16.6 13.2C16.1582 12.8686 15.5314 12.9582 15.2 13.4C14.7468 14.0043 14.2967 14.3886 13.8148 14.6295C13.3329 14.8705 12.7554 15 12 15C11.2446 15 10.6671 14.8705 10.1852 14.6295C9.70335 14.3886 9.25322 14.0043 8.8 13.4Z" fill="#2C2A29"/>
<path d="M5 22C3.34315 22 2 20.6569 2 19V17C2 16.4477 2.44772 16 3 16C3.55228 16 4 16.4477 4 17V19C4 19.5523 4.44772 20 5 20H7C7.55228 20 8 20.4477 8 21C8 21.5523 7.55228 22 7 22H5Z" fill="#2C2A29"/>
<path d="M22 5C22 3.34315 20.6569 2 19 2H17C16.4477 2 16 2.44772 16 3C16 3.55228 16.4477 4 17 4H19C19.5523 4 20 4.44772 20 5V7C20 7.55228 20.4477 8 21 8C21.5523 8 22 7.55228 22 7V5Z" fill="#2C2A29"/>
<path d="M19 22C20.6569 22 22 20.6569 22 19V17C22 16.4477 21.5523 16 21 16C20.4477 16 20 16.4477 20 17V19C20 19.5523 19.5523 20 19 20H17C16.4477 20 16 20.4477 16 21C16 21.5523 16.4477 22 17 22H19Z" fill="#2C2A29"/>
</svg>
