<svg width="32" height="32" viewBox="0 0 32 32" fill="none" xmlns="http://www.w3.org/2000/svg">
<circle opacity="0.1" cx="16" cy="16" r="16" fill="#2C2A29"/>
<path d="M22.0655 17.968C22.0655 18.1999 21.9755 18.432 21.7983 18.6087L16.6727 23.7343C16.3184 24.0886 15.7447 24.0886 15.3913 23.7343L10.2657 18.6087C9.91142 18.2544 9.91142 17.6807 10.2657 17.3273L10.3436 17.2494C10.6979 16.8951 11.2716 16.8951 11.625 17.2494L15.1258 20.7502V8.90618C15.1258 8.40597 15.5318 8 16.032 8C16.5322 8 16.9382 8.40597 16.9382 8.90618L16.9382 20.7502L20.439 17.2494C20.7933 16.8951 21.367 16.8951 21.7204 17.2494L21.7983 17.3273C21.9755 17.5044 22.0655 17.7361 22.0655 17.968Z" fill="#2C2A29"/>
</svg>
