<svg width="24" height="24" viewBox="0 0 24 24" fill="none" xmlns="http://www.w3.org/2000/svg">
<path fill-rule="evenodd" clip-rule="evenodd" d="M4.65177 3.13459C6.82915 1.75134 9.36399 1 11.9762 1C15.6413 1 19.153 2.47882 21.7398 5.10601C22.1403 5.51277 22.5135 5.94192 22.8584 6.39053C23.195 6.82839 23.1129 7.45621 22.6751 7.79281C22.2372 8.12941 21.6094 8.04732 21.2728 7.60947C20.9773 7.2251 20.6576 6.85752 20.3146 6.50922C18.1005 4.26045 15.1007 3 11.9762 3C9.74874 3 7.58515 3.64052 5.72422 4.82274C5.25805 5.11888 4.64007 4.98106 4.34392 4.51489C4.04777 4.04872 4.1856 3.43073 4.65177 3.13459ZM7.91469 5.07042C9.20188 4.52892 10.582 4.25 11.9762 4.25C13.3704 4.25 14.7506 4.52892 16.0378 5.07042C17.3249 5.61191 18.4934 6.40516 19.477 7.4041C20.4606 8.40302 21.2399 9.58807 21.7714 10.8912C22.3029 12.1943 22.5762 13.5904 22.5762 15C22.5762 16.1222 22.1374 17.2015 21.3515 17.9997C20.5651 18.7984 19.4952 19.25 18.3762 19.25C17.2573 19.25 16.1873 18.7984 15.4009 17.9997C14.615 17.2015 14.1762 16.1222 14.1762 15C14.1762 14.3983 13.9407 13.8243 13.5264 13.4035C13.1126 12.9832 12.5547 12.75 11.9762 12.75C11.3978 12.75 10.8399 12.9832 10.426 13.4035C10.0117 13.8243 9.77622 14.3983 9.77622 15C9.77622 16.1512 9.9995 17.2908 10.4329 18.3535C10.8664 19.4162 11.5012 20.3809 12.3006 21.1927C12.688 21.5862 12.6831 22.2194 12.2896 22.6069C11.8961 22.9943 11.2629 22.9894 10.8754 22.5959C9.89188 21.597 9.11249 20.4119 8.58103 19.1088C8.04957 17.8057 7.77622 16.4096 7.77622 15C7.77622 13.8778 8.21501 12.7985 9.00091 12.0003C9.78733 11.2016 10.8573 10.75 11.9762 10.75C13.0952 10.75 14.1651 11.2016 14.9515 12.0003C15.7374 12.7985 16.1762 13.8778 16.1762 15C16.1762 15.6017 16.4117 16.1757 16.826 16.5965C17.2399 17.0168 17.7978 17.25 18.3762 17.25C18.9546 17.25 19.5126 17.0168 19.9264 16.5965C20.3407 16.1757 20.5762 15.6017 20.5762 15C20.5762 13.8488 20.3529 12.7092 19.9195 11.6465C19.4861 10.5838 18.8512 9.61914 18.0519 8.80731C17.2526 7.99552 16.3045 7.35241 15.2622 6.91393C14.22 6.47547 13.1034 6.25 11.9762 6.25C10.849 6.25 9.73249 6.47547 8.69023 6.91393C7.64794 7.35241 6.69987 7.99552 5.90056 8.80731C5.10123 9.61914 4.46635 10.5838 4.03293 11.6465C3.5995 12.7092 3.37622 13.8488 3.37622 15C3.37622 15.5523 2.92851 16 2.37622 16C1.82394 16 1.37622 15.5523 1.37622 15C1.37622 13.5904 1.64957 12.1943 2.18102 10.8912C2.71249 9.58807 3.49188 8.40302 4.47543 7.4041C5.45901 6.40516 6.62753 5.61191 7.91469 5.07042ZM6.73817 9.7022C8.1247 8.294 10.0086 7.5 11.9762 7.5C13.9439 7.5 15.8277 8.294 17.2143 9.7022C18.6003 11.1099 19.3762 13.0158 19.3762 15C19.3762 15.5523 18.9285 16 18.3762 16C17.8239 16 17.3762 15.5523 17.3762 15C17.3762 13.5363 16.8036 12.1357 15.7891 11.1054C14.7752 10.0756 13.4033 9.5 11.9762 9.5C10.5491 9.5 9.17724 10.0756 8.16331 11.1054C7.14886 12.1357 6.57622 13.5363 6.57622 15C6.57622 16.5309 6.86386 18.0313 7.40847 19.4267C7.60926 19.9412 7.35497 20.5211 6.84048 20.7218C6.32599 20.9226 5.74613 20.6683 5.54534 20.1539C4.91096 18.5284 4.57622 16.7816 4.57622 15C4.57622 13.0158 5.35216 11.1099 6.73817 9.7022ZM11.9762 14C12.5285 14 12.9762 14.4477 12.9762 15C12.9762 16.4637 13.5489 17.8643 14.5633 18.8946C15.5772 19.9244 16.9491 20.5 18.3762 20.5C19.0328 20.5 19.6773 20.3782 20.2806 20.1466C20.7962 19.9487 21.3746 20.2062 21.5725 20.7218C21.7705 21.2374 21.5129 21.8158 20.9973 22.0138C20.168 22.3322 19.2807 22.5 18.3762 22.5C16.4086 22.5 14.5247 21.706 13.1382 20.2978C11.7522 18.8901 10.9762 16.9842 10.9762 15C10.9762 14.4477 11.4239 14 11.9762 14Z" fill="#2C2A29"/>
</svg>
