<svg width="24" height="24" viewBox="0 0 24 24" fill="none" xmlns="http://www.w3.org/2000/svg">
<path fill-rule="evenodd" clip-rule="evenodd" d="M10.1499 1.06544C10.6574 1.23702 10.9547 1.70633 10.8564 2.181L10.856 2.18329L10.8536 2.19486L10.8437 2.24556C10.8349 2.29127 10.8219 2.36025 10.8061 2.44969C10.7744 2.62868 10.7313 2.88893 10.6872 3.20801C10.5985 3.84837 10.5066 4.71508 10.4902 5.63193C10.4736 6.55569 10.5347 7.49144 10.7321 8.28439C10.9353 9.10089 11.2473 9.62025 11.5993 9.88353C11.6048 9.88765 11.6097 9.89118 11.6141 9.89419C11.6317 9.88777 11.6566 9.87718 11.6894 9.85988C11.9268 9.73476 12.2485 9.43628 12.6021 8.97657C12.9374 8.5407 13.2308 8.05399 13.4441 7.66589C13.5495 7.47417 13.6326 7.31156 13.6888 7.19817C13.7168 7.14157 13.738 7.0975 13.7518 7.0685L13.7667 7.03672L13.7701 7.02929C13.8955 6.75483 14.1513 6.5439 14.4686 6.45335C14.7861 6.36278 15.1323 6.40201 15.4141 6.56047L14.8125 7.40549C15.4141 6.56047 15.4152 6.5611 15.4155 6.5613L15.4175 6.56239L15.4227 6.56537L15.4387 6.5745C15.4517 6.58198 15.4694 6.59228 15.4915 6.60533C15.5357 6.63142 15.5976 6.66858 15.6746 6.71645C15.8286 6.81211 16.0437 6.95097 16.2996 7.13013C16.8097 7.48727 17.491 8.01079 18.1752 8.67808C19.5224 9.9919 21 11.9811 21 14.4325C21 19.0893 17.0515 23 12 23C6.94846 23 3 19.0893 3 14.4325C3 13.22 3.40029 11.795 3.94019 10.4012C4.48723 8.98888 5.21063 7.52663 5.92465 6.21377C6.64003 4.89841 7.35417 3.7181 7.88898 2.86721C8.15665 2.44134 8.38006 2.09693 8.53712 1.85815C8.61567 1.73874 8.67767 1.64568 8.72036 1.58199L8.76958 1.50884L8.7827 1.48947L8.78781 1.48195L9.75 2.00012C8.78781 1.48195 8.78792 1.4818 8.78781 1.48195C9.06922 1.06907 9.6423 0.893827 10.1499 1.06544ZM14.4595 10.1053C14.7614 9.71282 15.0258 9.30233 15.2392 8.9413C15.621 9.22653 16.0675 9.59156 16.5123 10.0253C17.6964 11.1801 18.75 12.7044 18.75 14.4325C18.75 17.2085 17.0051 19.5143 14.5943 20.494C14.8523 20.0471 15 19.5274 15 18.973C15 17.8617 14.1653 17.3834 13.2793 16.8756C12.8324 16.6196 12.3725 16.356 12 16C11.5123 15.5338 11.1429 14 11.1429 14C11.1429 14 9 17.3012 9 18.973C9 19.5274 9.14774 20.0471 9.40566 20.494C6.99494 19.5143 5.25 17.2085 5.25 14.4325C5.25 13.5553 5.55283 12.3813 6.06762 11.0523C6.57527 9.74168 7.25812 8.35705 7.95035 7.08425C8.05023 6.90062 8.15012 6.71962 8.24953 6.54183C8.27809 7.26958 8.36127 8.01777 8.53519 8.71646C8.77968 9.69868 9.23982 10.7327 10.1507 11.4139C10.5497 11.7123 11.0229 11.8913 11.5431 11.9025C12.0452 11.9132 12.4854 11.7655 12.837 11.5802C13.5096 11.2257 14.0577 10.6277 14.4595 10.1053Z" fill="#2C2A29"/>
</svg>
