<svg width="24" height="24" viewBox="0 0 24 24" fill="none" xmlns="http://www.w3.org/2000/svg">
<g opacity="0.4">
<path d="M12.8066 3.58614C13.3875 2.87293 14.434 3.14022 14.2175 3.9465L12.4432 10.5525H17.6295C18.2318 10.5525 18.452 11.171 18.0329 11.6855L17.1981 12.7103C16.5083 12.2611 15.6846 12 14.8 12C13.3973 12 12.1479 12.6564 11.3422 13.6788L11.4623 13.2317L6.27601 13.2317C5.67373 13.2317 5.45355 12.6132 5.87266 12.0987L12.8066 3.58614Z" fill="#2C2A29"/>
<path d="M10.4439 17.0235L9.68804 19.8377C9.47149 20.6439 10.518 20.9112 11.0989 20.198L11.672 19.4944C11.0236 18.839 10.5797 17.9808 10.4439 17.0235Z" fill="#2C2A29"/>
</g>
<path fill-rule="evenodd" clip-rule="evenodd" d="M14.8 20C16.7882 20 18.4 18.3882 18.4 16.4C18.4 14.4118 16.7882 12.8 14.8 12.8C12.8117 12.8 11.2 14.4118 11.2 16.4C11.2 18.3882 12.8117 20 14.8 20ZM13.7281 18.1C13.6531 18.3437 13.5468 18.4375 13.3562 18.4375C13.1593 18.4375 13.025 18.3219 13.025 18.1406C13.025 18.0656 13.0437 17.9844 13.0843 17.8656L14.2562 14.55C14.3656 14.2375 14.5187 14.1 14.8031 14.1C15.0875 14.1 15.2406 14.2344 15.3468 14.55L16.5187 17.8656C16.5531 17.9687 16.5718 18.0531 16.5718 18.1312C16.5718 18.3187 16.4375 18.4375 16.2343 18.4375C16.0437 18.4375 15.9312 18.3406 15.8593 18.1L15.5656 17.2187H14.0218L13.7281 18.1ZM14.7781 14.8719L14.1906 16.675H15.3968L14.8125 14.8719H14.7781Z" fill="#2C2A29"/>
</svg>
