<svg width="24" height="24" viewBox="0 0 24 24" fill="none" xmlns="http://www.w3.org/2000/svg">
<g opacity="0.4">
<path d="M8.25511 9.17384L5.87266 12.0987C5.45355 12.6132 5.67373 13.2317 6.27601 13.2317L10.5979 13.2317L8.25511 9.17384Z" fill="#2C2A29"/>
<path d="M11.1879 14.2535L9.68804 19.8377C9.47149 20.6439 10.518 20.9112 11.0989 20.198L13.1594 17.6684L11.1879 14.2535Z" fill="#2C2A29"/>
<path d="M15.8624 14.3501L18.0329 11.6855C18.452 11.171 18.2318 10.5525 17.6295 10.5525H13.6699L15.8624 14.3501Z" fill="#2C2A29"/>
<path d="M12.8327 9.10241L14.2175 3.9465C14.434 3.14022 13.3875 2.87293 12.8066 3.58614L10.9581 5.85551L12.8327 9.10241Z" fill="#2C2A29"/>
</g>
<path fill-rule="evenodd" clip-rule="evenodd" d="M7.6251 4.15051C7.98382 3.94341 8.44252 4.06631 8.64962 4.42503L16.6496 18.2814C16.8567 18.6402 16.7338 19.0989 16.3751 19.306C16.0164 19.5131 15.5577 19.3902 15.3506 19.0314L7.35059 5.17503C7.14348 4.81631 7.26639 4.35762 7.6251 4.15051Z" fill="#2C2A29"/>
</svg>
