<svg width="24" height="24" viewBox="0 0 24 24" fill="none" xmlns="http://www.w3.org/2000/svg">
<path fill-rule="evenodd" clip-rule="evenodd" d="M16.151 8.15094C16.151 10.4434 14.2926 12.3019 12.0001 12.3019C9.70756 12.3019 7.84912 10.4434 7.84912 8.15094C7.84912 5.85844 9.70756 4 12.0001 4C14.2926 4 16.151 5.85844 16.151 8.15094ZM14.151 8.15094C14.151 9.33888 13.188 10.3019 12.0001 10.3019C10.8121 10.3019 9.84912 9.33888 9.84912 8.15094C9.84912 6.96301 10.8121 6 12.0001 6C13.188 6 14.151 6.96301 14.151 8.15094Z" />
<path fill-rule="evenodd" clip-rule="evenodd" d="M4.47224 17.5833C4.17917 17.2484 4.17918 16.7517 4.47224 16.4169C6.30523 14.3227 8.99808 13.0001 11.9998 13.0001C15.0016 13.0001 17.6945 14.3227 19.5275 16.417C19.8206 16.7518 19.8206 17.2485 19.5275 17.5833C17.6945 19.6776 15.0017 21.0002 11.9999 21.0002C8.9981 21.0002 6.30522 19.6775 4.47224 17.5833ZM11.9999 19.0002C9.97093 19.0002 8.11968 18.2466 6.70799 17.0001C8.11967 15.7536 9.9709 15.0001 11.9998 15.0001C14.0288 15.0001 15.8801 15.7536 17.2917 17.0001C15.8801 18.2467 14.0288 19.0002 11.9999 19.0002Z" />
</svg>
