<svg width="24" height="24" viewBox="0 0 24 24" fill="none" xmlns="http://www.w3.org/2000/svg">
<path d="M11 5.14067V4.06275C9.59766 4.23942 8.26071 4.7855 7.12991 5.65319C5.73276 6.72526 4.7284 8.2284 4.2726 9.92946C3.8168 11.6305 3.93503 13.4345 4.60897 15.0615C5.2829 16.6885 6.47487 18.0477 8 18.9282C9.52514 19.8088 11.2982 20.1614 13.0442 19.9316C14.7902 19.7017 16.4116 18.9021 17.6569 17.6569C18.9021 16.4116 19.7017 14.7902 19.9316 13.0442C20.1614 11.2982 19.8087 9.52515 18.9282 8.00002C18.6521 7.52172 18.8159 6.91013 19.2942 6.63399C19.7725 6.35785 20.3841 6.52172 20.6603 7.00002C21.7609 8.90643 22.2018 11.1228 21.9145 13.3053C21.6271 15.4878 20.6277 17.5145 19.0711 19.0711C17.5145 20.6277 15.4878 21.6271 13.3053 21.9145C11.1228 22.2018 8.90642 21.7609 7 20.6603C5.09359 19.5596 3.60363 17.8606 2.76121 15.8268C1.91879 13.7931 1.771 11.5382 2.34075 9.41182C2.9105 7.28549 4.16595 5.40657 5.91239 4.06648C7.39294 2.93042 9.15621 2.23542 11 2.05013V0.907179C11 0.513401 11.4341 0.274159 11.767 0.484434L15.2949 2.71259C15.6142 2.91423 15.6033 3.38342 15.275 3.57002L11.7471 5.57536C11.4138 5.76482 11 5.52408 11 5.14067Z" fill="#2C2A29"/>
<path fill-rule="evenodd" clip-rule="evenodd" d="M12.2888 15.615C12.7361 15.945 13.2678 16.11 13.8838 16.11C14.4998 16.11 15.0278 15.945 15.4678 15.615C15.9151 15.285 16.2524 14.823 16.4798 14.229C16.7071 13.6277 16.8208 12.9347 16.8208 12.15C16.8208 11.3654 16.7071 10.676 16.4798 10.082C16.2524 9.48068 15.9151 9.01502 15.4678 8.68502C15.0278 8.35502 14.4998 8.19002 13.8838 8.19002C13.2678 8.19002 12.7361 8.35502 12.2888 8.68502C11.8488 9.01502 11.5151 9.48068 11.2878 10.082C11.0604 10.676 10.9468 11.3654 10.9468 12.15C10.9468 12.9347 11.0604 13.6277 11.2878 14.229C11.5151 14.823 11.8488 15.285 12.2888 15.615ZM14.9838 14.119C14.7198 14.5664 14.3531 14.79 13.8838 14.79C13.4144 14.79 13.0441 14.5664 12.7728 14.119C12.5088 13.6717 12.3768 13.0154 12.3768 12.15C12.3768 11.2847 12.5088 10.6284 12.7728 10.181C13.0441 9.73368 13.4144 9.51002 13.8838 9.51002C14.3531 9.51002 14.7198 9.73368 14.9838 10.181C15.2551 10.6284 15.3908 11.2847 15.3908 12.15C15.3908 13.0154 15.2551 13.6717 14.9838 14.119Z" fill="#2C2A29"/>
<path d="M9.99194 8.49802C9.86727 8.36602 9.71327 8.30002 9.52994 8.30002C9.33927 8.30002 9.1816 8.33302 9.05694 8.39902L7.39594 9.38902C7.29327 9.44768 7.20894 9.52835 7.14294 9.63102C7.08427 9.73368 7.05494 9.84368 7.05494 9.96102C7.05494 10.1297 7.11727 10.2837 7.24194 10.423C7.37394 10.5624 7.5316 10.632 7.71494 10.632C7.8396 10.632 7.95694 10.599 8.06694 10.533L8.74894 10.115V15.329C8.74894 15.5197 8.81494 15.681 8.94694 15.813C9.07894 15.9377 9.2476 16 9.45294 16C9.65827 16 9.8306 15.9377 9.96994 15.813C10.1093 15.681 10.1789 15.5197 10.1789 15.329V8.97102C10.1789 8.78035 10.1166 8.62268 9.99194 8.49802Z" fill="#2C2A29"/>
</svg>
