<svg width="24" height="24" viewBox="0 0 24 24" fill="none" xmlns="http://www.w3.org/2000/svg">
<path fill-rule="evenodd" clip-rule="evenodd" d="M6.67658 2.98969C7.23481 2.31782 8.2664 1.76225 9.37342 2.18619C10.2996 2.54089 11.0698 3.34609 11.5943 4.21699C11.6312 4.27833 11.6674 4.34067 11.7026 4.40392C11.7379 4.34067 11.774 4.27833 11.811 4.21699C12.3355 3.34609 13.1056 2.54089 14.0319 2.18619C15.1389 1.76225 16.1705 2.31782 16.7287 2.98969C17.2868 3.6614 17.6426 4.77303 17.0402 5.7842C16.7396 6.28863 16.2884 6.68645 15.7959 7.00003H21C21.5523 7.00003 22 7.44774 22 8.00003V12C22 12.5523 21.5523 13 21 13V21C21 22.1046 20.1046 23 19 23H5C3.89543 23 3 22.1046 3 21L3 13C2.44772 13 2 12.5523 2 12V8.00003C2 7.44774 2.44772 7.00003 3 7.00003H7.60942C7.11689 6.68645 6.66563 6.28863 6.3651 5.7842C5.76266 4.77303 6.11848 3.6614 6.67658 2.98969ZM8.21489 4.26781C8.0084 4.51634 8.04914 4.70326 8.08327 4.76054C8.26141 5.05954 8.72571 5.40681 9.47975 5.71416C9.72406 5.81374 9.97942 5.90133 10.2348 5.97708C10.1399 5.72671 10.0208 5.48084 9.88101 5.24881C9.48967 4.599 9.02094 4.19284 8.65817 4.05392C8.60375 4.03308 8.42125 4.01945 8.21489 4.26781ZM13 13H19V21H13V13ZM13 11H20V9.00003H13V11ZM11 9.00003V11H4V9.00003H11ZM11 13V21H5V13H11ZM15.1904 4.26781C15.3969 4.51634 15.3561 4.70326 15.322 4.76054C15.1439 5.05954 14.6796 5.40681 13.9255 5.71416C13.6812 5.81374 13.4258 5.90133 13.1704 5.97708C13.2653 5.72671 13.3845 5.48084 13.5243 5.24881C13.9156 4.599 14.3843 4.19284 14.7471 4.05392C14.8015 4.03308 14.984 4.01945 15.1904 4.26781Z" fill="#2C2A29"/>
</svg>
