<svg width="32" height="32" viewBox="0 0 32 32" fill="none" xmlns="http://www.w3.org/2000/svg">
<circle opacity="0.1" cx="16" cy="16" r="16" fill="#2C2A29"/>
<path d="M22.0655 14.032C22.0655 13.8001 21.9755 13.568 21.7983 13.3913L16.6727 8.26574C16.3184 7.91142 15.7447 7.91142 15.3913 8.26574L10.2657 13.3913C9.91142 13.7456 9.91142 14.3193 10.2657 14.6727L10.3436 14.7506C10.6979 15.1049 11.2716 15.1049 11.625 14.7506L15.1258 11.2498V23.0938C15.1258 23.594 15.5318 24 16.032 24C16.5322 24 16.9382 23.594 16.9382 23.0938L16.9382 11.2498L20.439 14.7506C20.7933 15.1049 21.367 15.1049 21.7204 14.7506L21.7983 14.6727C21.9755 14.4956 22.0655 14.2639 22.0655 14.032Z" fill="#2C2A29"/>
</svg>
