<svg width="24" height="24" viewBox="0 0 24 24" fill="none" xmlns="http://www.w3.org/2000/svg">
<path fill-rule="evenodd" clip-rule="evenodd" d="M10.4501 3.78596C11.4631 4.36428 12 5.05014 12 5.05014C12 5.05014 12.5369 4.36428 13.5499 3.78596C14.2882 3.36441 15.2795 3 16.5 3C19.538 3 22 5.41504 22 8.3951C22 12.1274 17.9125 15.7544 16.1557 17.3133L16.1556 17.3133C15.9866 17.4633 15.8392 17.5941 15.719 17.7041C14.142 19.146 12 21 12 21C12 21 9.858 19.146 8.281 17.7041C8.16085 17.5941 8.0134 17.4633 7.84438 17.3133L7.84433 17.3133C6.08753 15.7544 2 12.1274 2 8.3951C2 5.41504 4.462 3 7.5 3C8.72054 3 9.71178 3.36441 10.4501 3.78596ZM12 18.3447C12.7207 17.7111 13.6138 16.919 14.3694 16.2281C14.5008 16.1079 14.6576 15.9687 14.8195 15.8251L14.8282 15.8173C15.7123 15.0329 17.0494 13.8415 18.1686 12.4278C19.3255 10.9664 20 9.57368 20 8.3951C20 6.55575 18.4699 5 16.5 5C15.5447 5 14.8017 5.33462 14.2795 5.68536C14.0177 5.86116 13.8214 6.03495 13.6974 6.15673C13.636 6.217 13.5944 6.26256 13.5733 6.28646C13.5683 6.29205 13.5646 6.2964 13.562 6.29941L12 8.29458L10.438 6.29941C10.4354 6.2964 10.4317 6.29205 10.4267 6.28646C10.4056 6.26256 10.364 6.217 10.3026 6.15673C10.1786 6.03495 9.98228 5.86116 9.72053 5.68536C9.1983 5.33462 8.45533 5 7.5 5C5.53008 5 4 6.55575 4 8.3951C4 9.57368 4.67449 10.9664 5.83144 12.4278C6.95061 13.8415 8.28769 15.0329 9.17176 15.8173L9.18059 15.8252C9.34242 15.9688 9.49921 16.1079 9.63061 16.2281M13.5577 6.30439C13.5577 6.3044 13.5577 6.30441 13.5577 6.30441L13.5577 6.3044L13.5577 6.30439ZM12 18.3447C11.2795 17.7113 10.3866 16.9194 9.63112 16.2286L12 18.3447Z" fill="#2C2A29"/>
</svg>
