<svg width="24" height="24" viewBox="0 0 24 24" fill="none" xmlns="http://www.w3.org/2000/svg">
<path fill-rule="evenodd" clip-rule="evenodd" d="M2 12C2 14.0696 2.77617 15.976 4.08082 17.4964L3.37849 20.1175C3.17925 20.8611 3.85966 21.5415 4.60323 21.3423L8.28064 20.3569C9.43036 20.7718 10.6856 21 12 21C17.5228 21 22 16.9706 22 12C22 7.02944 17.5228 3 12 3C6.47715 3 2 7.02944 2 12ZM6.01267 18.014C6.18358 17.3762 6.02863 16.6951 5.5986 16.1939C4.57922 15.006 4 13.5535 4 12C4 8.32701 7.3783 5 12 5C16.6217 5 20 8.32701 20 12C20 15.673 16.6217 19 12 19C10.9177 19 9.89213 18.8122 8.95947 18.4756C8.57517 18.337 8.15763 18.3193 7.763 18.4251L5.75863 18.9621L6.01267 18.014Z" fill="#2C2A29"/>
<path fill-rule="evenodd" clip-rule="evenodd" d="M9.78741 7.73556C10.3986 7.27838 11.1979 7 12.0004 7C12.7611 7 13.5787 7.21487 14.2194 7.65691C14.8771 8.11071 15.3995 8.85298 15.3318 9.83513C15.2496 11.0257 14.4048 11.7512 13.8529 12.2253C13.818 12.2552 13.7843 12.2842 13.7521 12.3122C13.1122 12.8674 12.8337 13.1796 12.8337 13.6667C12.8337 14.1269 12.4606 14.5 12.0004 14.5C11.5402 14.5 11.1671 14.1269 11.1671 13.6667C11.1671 12.3478 12.055 11.5778 12.6363 11.0737C12.6442 11.0669 12.652 11.06 12.6598 11.0533C13.3372 10.4656 13.6378 10.1732 13.669 9.72042C13.6864 9.46866 13.5772 9.23871 13.2729 9.02877C12.9515 8.80706 12.4766 8.66667 12.0004 8.66667C11.566 8.66667 11.1154 8.82357 10.7857 9.07014C10.4508 9.32066 10.3337 9.58469 10.3337 9.77778C10.3337 10.238 9.96063 10.6111 9.5004 10.6111C9.04016 10.6111 8.66706 10.238 8.66706 9.77778C8.66706 8.89698 9.18153 8.18878 9.78741 7.73556Z" fill="#2C2A29"/>
<path d="M11.1671 16.1667C11.1671 15.7064 11.5402 15.3333 12.0004 15.3333C12.4606 15.3333 12.8337 15.7064 12.8337 16.1667C12.8337 16.6269 12.4606 17 12.0004 17C11.5402 17 11.1671 16.6269 11.1671 16.1667Z" fill="#2C2A29"/>
</svg>
