<svg width="24" height="24" viewBox="0 0 24 24" fill="none" xmlns="http://www.w3.org/2000/svg">
<path d="M4 4C4 2.89543 4.89543 2 6 2H16C17.1046 2 18 2.89543 18 4V10H16V4L6 4V20H16V14H18V20C18 21.1046 17.1046 22 16 22H6C4.89543 22 4 21.1046 4 20V4Z" />
<path d="M14 11C13.4477 11 13 11.4477 13 12C13 12.5523 13.4477 13 14 13H20.5858L19.2929 14.2929C18.9024 14.6834 18.9024 15.3166 19.2929 15.7071C19.6834 16.0976 20.3166 16.0976 20.7071 15.7071L23.7071 12.7071C24.0976 12.3166 24.0976 11.6834 23.7071 11.2929L20.7071 8.29289C20.3166 7.90237 19.6834 7.90237 19.2929 8.29289C18.9024 8.68342 18.9024 9.31658 19.2929 9.70711L20.5858 11H14Z" />
</svg>
