<svg width="24" height="24" viewBox="0 0 24 24" fill="none" xmlns="http://www.w3.org/2000/svg">
<path fill-rule="evenodd" clip-rule="evenodd" d="M13.3322 1C12.0865 1 11.4842 2.0191 11.2113 2.52573C11.2047 2.538 11.1983 2.5504 11.1923 2.56293C10.3549 4.2861 9.14646 5.80108 7.65511 7H4C2.89543 7 2 7.89543 2 9V19C2 20.1046 2.89543 21 4 21L16.8172 20.9998C17.4918 21.0077 18.1504 20.794 18.6918 20.3914C19.2354 19.9873 19.6306 19.4153 19.8162 18.7639L19.822 18.7427L21.9128 10.7428L21.9183 10.7208C22.0255 10.2692 22.0272 9.79889 21.9233 9.34646C21.8195 8.89413 21.6128 8.4718 21.3195 8.11217C21.0261 7.75243 20.6539 7.46505 20.2317 7.27227C19.8144 7.08177 19.3594 6.98868 18.901 6.99993H14.7602C15.0506 6.21743 15.2123 5.53705 15.2914 4.94158C15.4168 3.99732 15.3273 3.31162 15.2625 2.85851L15.2618 2.85338C15.2044 2.46655 15.0613 2.02143 14.7509 1.65304C14.4146 1.25405 13.9237 1 13.3322 1ZM9 18.9998H16.8236L16.8378 18.9999C17.0756 19.0033 17.3078 18.9282 17.4985 18.7864C17.6867 18.6465 17.8241 18.4492 17.8902 18.2246L19.9745 10.2498C20.0086 10.0999 20.0085 9.94406 19.9741 9.79405C19.9389 9.641 19.869 9.49805 19.7697 9.3763C19.6703 9.25451 19.5441 9.15693 19.401 9.09161C19.258 9.02629 19.1017 8.99476 18.9445 8.99948C18.9389 8.99965 18.9334 8.99977 18.9278 8.99984C18.9234 8.9999 18.9189 8.99993 18.9145 8.99993H13.2322C12.8855 8.99993 12.5637 8.82045 12.3815 8.52559C12.1993 8.23073 12.1827 7.86255 12.3378 7.55256C12.9665 6.29572 13.218 5.362 13.3088 4.67835C13.3983 4.00436 13.3382 3.53077 13.2831 3.14443C13.2773 3.10587 13.27 3.07236 13.2622 3.0439C13.19 3.11362 13.0999 3.23919 12.9814 3.45703C12.0325 5.40244 10.6735 7.11714 9 8.48437V18.9998ZM4 9H7V19H4V9Z" fill="#2C2A29"/>
</svg>
