<svg width="24" height="24" viewBox="0 0 24 24" fill="none" xmlns="http://www.w3.org/2000/svg">
<path d="M17.6776 10.5858C17.0494 11.2141 16.2118 11.5054 15.3894 11.4599L13.7292 13.12C15.5234 13.8231 17.6421 13.4498 19.0919 12L20.5061 10.5858C22.4587 8.63317 22.4587 5.46735 20.5061 3.51473C18.5535 1.56211 15.3876 1.56211 13.435 3.51473L12.0208 4.92894C10.571 6.37874 10.1977 8.49735 10.9008 10.2916L12.5609 8.63143C12.5154 7.80901 12.8067 6.97142 13.435 6.34316L14.8492 4.92894C16.0208 3.75737 17.9203 3.75737 19.0919 4.92894C20.2634 6.10051 20.2634 8.00001 19.0919 9.17158L17.6776 10.5858Z" />
<path d="M4.94972 12C6.39952 10.5502 8.51814 10.1769 10.3124 10.88L8.65221 12.5402C7.8298 12.4946 6.9922 12.786 6.36394 13.4142L4.94972 14.8284C3.77815 16 3.77815 17.8995 4.94972 19.0711C6.1213 20.2426 8.02079 20.2426 9.19237 19.0711L10.6066 17.6569C11.2348 17.0286 11.5262 16.191 11.4806 15.3686L13.1408 13.7084C13.8439 15.5027 13.4706 17.6213 12.0208 19.0711L10.6066 20.4853C8.65396 22.4379 5.48813 22.4379 3.53551 20.4853C1.58289 18.5327 1.58289 15.3668 3.53551 13.4142L4.94972 12Z" />
<path d="M15.5563 8.46447C15.1658 8.07395 14.5326 8.07395 14.1421 8.46447L8.48524 14.1213C8.09472 14.5118 8.09472 15.145 8.48524 15.5355C8.87577 15.9261 9.50893 15.9261 9.89946 15.5355L15.5563 9.87868C15.9468 9.48816 15.9468 8.85499 15.5563 8.46447Z" />
</svg>
