<svg width="24" height="24" viewBox="0 0 24 24" fill="none" xmlns="http://www.w3.org/2000/svg">
<path d="M16.9498 11.2928C16.5593 11.6834 16.5593 12.3165 16.9498 12.7071C17.3403 13.0976 17.9735 13.0976 18.364 12.7071L20.4853 10.5857C22.4379 8.63311 22.4379 5.46729 20.4853 3.51467C18.5327 1.56205 15.3669 1.56205 13.4143 3.51467L9.87872 7.0502C7.9261 9.00282 7.9261 12.1686 9.87872 14.1213C9.93753 14.1801 9.99745 14.2371 10.0584 14.2924C10.3853 14.5889 10.8808 14.5334 11.1929 14.2213L11.3999 14.0143C11.7517 13.6625 11.6447 13.0588 11.2929 12.7071C10.1214 11.5355 10.1214 9.63599 11.2929 8.46441L14.8285 4.92888C16 3.75731 17.8995 3.75731 19.0711 4.92888C20.2427 6.10045 20.2427 7.99995 19.0711 9.17152L16.9498 11.2928Z" fill="#2C2A29"/>
<path d="M9.17161 19.071L12.7071 15.5355C13.8787 14.3639 13.8787 12.4644 12.7071 11.2928C12.3554 10.941 12.2483 10.3374 12.6001 9.98563L12.8072 9.77858C13.1193 9.46651 13.6147 9.41102 13.9417 9.70748C14.0026 9.76276 14.0625 9.8198 14.1214 9.87862C16.074 11.8312 16.074 14.9971 14.1214 16.9497L10.5858 20.4852C8.6332 22.4378 5.46738 22.4378 3.51476 20.4852C1.56214 18.5326 1.56214 15.3668 3.51476 13.4142L5.63608 11.2928C6.0266 10.9023 6.65977 10.9023 7.05029 11.2928C7.44082 11.6834 7.44082 12.3165 7.05029 12.707L4.92897 14.8284C3.7574 15.9999 3.7574 17.8994 4.92897 19.071C6.10054 20.2426 8.00004 20.2426 9.17161 19.071Z" fill="#2C2A29"/>
</svg>
