<svg width="24" height="24" viewBox="0 0 24 24" fill="none" xmlns="http://www.w3.org/2000/svg">
<path d="M5.61786 6.21366C5.18359 5.87245 4.55494 5.94789 4.21372 6.38216C3.87251 6.81643 3.94795 7.44509 4.38222 7.7863L10.7644 12.8009C11.4896 13.3707 12.5105 13.3707 13.2357 12.8009L19.6179 7.7863C20.0521 7.44509 20.1276 6.81643 19.7864 6.38216C19.4451 5.94789 18.8165 5.87245 18.3822 6.21366L12 11.2282L5.61786 6.21366Z" />
<path fill-rule="evenodd" clip-rule="evenodd" d="M1 6C1 4.34315 2.34315 3 4 3H20C21.6569 3 23 4.34315 23 6V18C23 19.6569 21.6569 21 20 21H4C2.34315 21 1 19.6569 1 18V6ZM4 5H20C20.5523 5 21 5.44772 21 6V18C21 18.5523 20.5523 19 20 19H4C3.44772 19 3 18.5523 3 18V6C3 5.44772 3.44772 5 4 5Z" />
</svg>
