<svg width="24" height="24" viewBox="0 0 24 24" fill="none" xmlns="http://www.w3.org/2000/svg">
<path fill-rule="evenodd" clip-rule="evenodd" d="M17.9541 3.22062C19.2867 2.40315 20.9998 3.36205 20.9998 4.92542V16.0747C20.9998 17.638 19.2867 18.5969 17.9541 17.7795L14.0394 15.3781C13.6357 15.131 13.1712 15 12.6979 15H12.5056L13.8301 17.2942C14.3824 18.2508 14.0547 19.474 13.0981 20.0263L11.366 21.0263C10.4095 21.5786 9.18627 21.2508 8.63399 20.2942L5.51493 14.8919C3.50345 14.4427 2 12.6469 2 10.5C2 8.01474 4.01472 6.00002 6.5 6.00002H12.6979C13.1722 6.00002 13.6371 5.86877 14.0414 5.6208L17.9541 3.22062ZM7.88677 15L10.366 19.2942L12.0981 18.2942L10.1962 15H7.88677ZM18.9998 4.92542L15.0872 7.3256C15.0583 7.34331 15.0292 7.3607 15 7.37774V13.6223C15.028 13.6387 15.0559 13.6554 15.0837 13.6723L18.9998 16.0747L18.9998 4.92542ZM12.6979 8.00002C12.7989 8.00002 12.8997 7.99668 13 7.99003V13.01C12.8996 13.0034 12.7989 13 12.6979 13H6.5C5.11929 13 4 11.8807 4 10.5C4 9.11931 5.11929 8.00002 6.5 8.00002H12.6979Z"/>
</svg>
