<svg width="24" height="24" viewBox="0 0 24 24" fill="none" xmlns="http://www.w3.org/2000/svg">
<path fill-rule="evenodd" clip-rule="evenodd" d="M22 12C22 16.9706 17.5228 21 12 21C10.6856 21 9.43036 20.7718 8.28064 20.3569L4.60323 21.3423C3.85966 21.5415 3.17925 20.8611 3.37849 20.1175L4.08082 17.4964C2.77617 15.976 2 14.0696 2 12C2 7.02944 6.47715 3 12 3C17.5228 3 22 7.02944 22 12ZM7 10C7 9.44772 7.44772 9 8 9H16C16.5523 9 17 9.44772 17 10C17 10.5523 16.5523 11 16 11H8C7.44772 11 7 10.5523 7 10ZM7 14C7 13.4477 7.44772 13 8 13H13C13.5523 13 14 13.4477 14 14C14 14.5523 13.5523 15 13 15H8C7.44772 15 7 14.5523 7 14Z" />
</svg>
