<svg width="24" height="24" viewBox="0 0 24 24" fill="none" xmlns="http://www.w3.org/2000/svg">
<path d="M7 10C7 9.44772 7.44772 9 8 9H16C16.5523 9 17 9.44772 17 10C17 10.5523 16.5523 11 16 11H8C7.44772 11 7 10.5523 7 10Z" />
<path d="M7 14C7 13.4477 7.44772 13 8 13H13C13.5523 13 14 13.4477 14 14C14 14.5523 13.5523 15 13 15H8C7.44772 15 7 14.5523 7 14Z" />
<path fill-rule="evenodd" clip-rule="evenodd" d="M2 12C2 14.0696 2.77617 15.976 4.08083 17.4964L3.37849 20.1175C3.17925 20.8611 3.85966 21.5415 4.60323 21.3423L8.28069 20.3569C9.43039 20.7718 10.6856 21 12 21C17.5228 21 22 16.9706 22 12C22 7.02944 17.5228 3 12 3C6.47715 3 2 7.02944 2 12ZM6.01268 18.014C6.18359 17.3762 6.02864 16.6951 5.5986 16.1939C4.57922 15.006 4 13.5535 4 12C4 8.32701 7.3783 5 12 5C16.6217 5 20 8.32701 20 12C20 15.673 16.6217 19 12 19C10.9177 19 9.89215 18.8122 8.95951 18.4756C8.57521 18.337 8.15767 18.3193 7.76305 18.4251L5.75863 18.9622L6.01268 18.014Z" />
</svg>
