<svg width="24" height="24" viewBox="0 0 24 24" fill="none" xmlns="http://www.w3.org/2000/svg">
<path d="M18.5 13.5C18.5 12.9477 18.0523 12.5 17.5 12.5C16.9477 12.5 16.5 12.9477 16.5 13.5V14.5H15.5C14.9477 14.5 14.5 14.9477 14.5 15.5C14.5 16.0523 14.9477 16.5 15.5 16.5H16.5V17.5C16.5 18.0523 16.9477 18.5 17.5 18.5C18.0523 18.5 18.5 18.0523 18.5 17.5V16.5H19.5C20.0523 16.5 20.5 16.0523 20.5 15.5C20.5 14.9477 20.0523 14.5 19.5 14.5H18.5V13.5Z" />
<path fill-rule="evenodd" clip-rule="evenodd" d="M2 12C2 14.0696 2.77617 15.976 4.08083 17.4964L3.37849 20.1175C3.17925 20.8611 3.85966 21.5415 4.60323 21.3423L8.28069 20.3569C9.43039 20.7718 10.6856 21 12 21C12.6185 21 13.2239 20.9495 13.8114 20.8527C14.8593 21.5763 16.1302 22 17.5 22C21.0899 22 24 19.0899 24 15.5C24 13.6067 23.1905 11.9024 21.8988 10.7145C21.2057 6.35285 17.0379 3 12 3C6.47715 3 2 7.02944 2 12ZM19.3582 9.26949C18.1681 6.82779 15.4256 5 12 5C7.3783 5 4 8.32701 4 12C4 13.5535 4.57922 15.006 5.5986 16.1939C6.02864 16.6951 6.18359 17.3762 6.01268 18.014L5.75863 18.9622L7.76305 18.4251C8.15767 18.3193 8.57521 18.337 8.95951 18.4756C9.89215 18.8122 10.9177 19 12 19L12.0218 19C11.375 17.9897 11 16.7886 11 15.5C11 11.9101 13.9101 9 17.5 9C18.1457 9 18.7694 9.09416 19.3582 9.26949ZM17.5 20C19.9853 20 22 17.9853 22 15.5C22 13.0147 19.9853 11 17.5 11C15.0147 11 13 13.0147 13 15.5C13 17.9853 15.0147 20 17.5 20Z" />
</svg>
