<svg width="24" height="24" viewBox="0 0 24 24" fill="none" xmlns="http://www.w3.org/2000/svg">
<path fill-rule="evenodd" clip-rule="evenodd" d="M12 2C10.9896 2 10.1034 2.5374 9.61719 3.34333C7.3045 4.27745 5.66667 6.53309 5.66667 9.17647L5.66667 11.8235C5.66667 12.9857 5.08056 14.015 4.17658 14.6334C3.57267 15.0465 3 15.7701 3 16.7114C3 17.9823 4.03588 19 5.29814 19H18.7019C19.9641 19 21 17.9823 21 16.7114C21 15.7701 20.4273 15.0465 19.8234 14.6334C18.9194 14.015 18.3333 12.9857 18.3333 11.8235V9.17647C18.3333 6.53309 16.6955 4.27746 14.3828 3.34333C13.8967 2.5374 13.0104 2 12 2ZM11.2703 4.49872C11.3795 4.20946 11.6635 4 12 4C12.3365 4 12.6205 4.20946 12.7297 4.49872C12.8368 4.78249 13.067 5.0023 13.3554 5.0963C15.0899 5.66169 16.3333 7.27942 16.3333 9.17647V11.8235C16.3333 13.6777 17.272 15.3112 18.6942 16.2841C18.94 16.4523 19 16.6283 19 16.7114C19 16.8638 18.8735 17 18.7019 17H5.29814C5.12651 17 5 16.8638 5 16.7114C5 16.6283 5.06 16.4523 5.30581 16.2841C6.728 15.3112 7.66667 13.6777 7.66667 11.8235V9.17647C7.66667 7.27942 8.91011 5.66169 10.6446 5.0963C10.933 5.00229 11.1632 4.78248 11.2703 4.49872Z" />
<path d="M12 22C10.5195 22 9.22678 21.1956 8.53516 20H15.4649C14.7733 21.1956 13.4806 22 12 22Z" />
</svg>
