<svg width="24" height="24" viewBox="0 0 24 24" fill="none" xmlns="http://www.w3.org/2000/svg">
<path d="M13.8734 3.29827C13.5892 2.53985 12.8577 2 12 2C11.1423 2 10.4108 2.53984 10.1266 3.29827C7.73031 4.08514 6 6.3405 6 9L6 12C6 13.7093 5.14232 15.2182 3.83384 16.1199C3.35588 16.4493 3 16.9591 3 17.5396C3 18.3462 3.65385 19 4.46041 19H19.5396C20.3462 19 21 18.3462 21 17.5396C21 16.9591 20.6441 16.4493 20.1662 16.1199C18.8577 15.2182 18 13.7093 18 12V9C18 6.3405 16.2697 4.08514 13.8734 3.29827Z" fill="#2C2A29"/>
<path d="M8.53516 20C9.22678 21.1956 10.5195 22 12 22C13.4806 22 14.7733 21.1956 15.4649 20H8.53516Z" fill="#2C2A29"/>
</svg>
