<svg width="32" height="32" viewBox="0 0 32 32" fill="none" xmlns="http://www.w3.org/2000/svg">
<path fill-rule="evenodd" clip-rule="evenodd" d="M12 10C10.9896 10 10.1034 10.5374 9.61719 11.3433C7.3045 12.2775 5.66667 14.5331 5.66667 17.1765L5.66667 19.8235C5.66667 20.9857 5.08056 22.015 4.17658 22.6334C3.57267 23.0465 3 23.7701 3 24.7114C3 25.9823 4.03588 27 5.29814 27H18.7019C19.9641 27 21 25.9823 21 24.7114C21 23.7701 20.4273 23.0465 19.8234 22.6334C18.9194 22.015 18.3333 20.9857 18.3333 19.8235V17.1765C18.3333 14.5331 16.6955 12.2775 14.3828 11.3433C13.8967 10.5374 13.0104 10 12 10ZM11.2703 12.4987C11.3795 12.2095 11.6635 12 12 12C12.3365 12 12.6205 12.2095 12.7297 12.4987C12.8368 12.7825 13.067 13.0023 13.3554 13.0963C15.0899 13.6617 16.3333 15.2794 16.3333 17.1765V19.8235C16.3333 21.6777 17.272 23.3112 18.6942 24.2841C18.94 24.4523 19 24.6283 19 24.7114C19 24.8638 18.8735 25 18.7019 25H5.29814C5.12651 25 5 24.8638 5 24.7114C5 24.6283 5.06 24.4523 5.30581 24.2841C6.728 23.3112 7.66667 21.6777 7.66667 19.8235V17.1765C7.66667 15.2794 8.91011 13.6617 10.6446 13.0963C10.933 13.0023 11.1632 12.7825 11.2703 12.4987Z" fill="#2C2A29"/>
<path d="M12 30C10.5195 30 9.22678 29.1956 8.53516 28H15.4649C14.7733 29.1956 13.4806 30 12 30Z" fill="#2C2A29"/>
<path d="M12 11C12 6.02944 16.0294 2 21 2C25.9706 2 30 6.02944 30 11C30 15.9706 25.9706 20 21 20C16.0294 20 12 15.9706 12 11Z" fill="#E60041"/>
<path d="M20.7476 16H21.8901V6.84033H20.7539L18.3164 8.59229V9.79834L20.646 8.10986H20.7476V16Z" fill="white"/>
<path d="M21 18C17.134 18 14 14.866 14 11H10C10 17.0751 14.9249 22 21 22V18ZM28 11C28 14.866 24.866 18 21 18V22C27.0751 22 32 17.0751 32 11H28ZM21 4C24.866 4 28 7.13401 28 11H32C32 4.92487 27.0751 0 21 0V4ZM21 0C14.9249 0 10 4.92487 10 11H14C14 7.13401 17.134 4 21 4V0Z" fill="#ECEFF4"/>
</svg>
