<svg width="24" height="24" viewBox="0 0 24 24" fill="none" xmlns="http://www.w3.org/2000/svg">
<g opacity="0.4">
<path d="M9.61719 3.34333C10.1034 2.5374 10.9896 2 12 2C13.0104 2 13.8967 2.5374 14.3828 3.34333C15.1656 3.65951 15.8711 4.12711 16.4619 4.70989L15.048 6.12385C14.5775 5.66231 14.0004 5.30654 13.3554 5.0963C13.067 5.0023 12.8368 4.78249 12.7297 4.49872C12.6205 4.20946 12.3365 4 12 4C11.6635 4 11.3795 4.20946 11.2703 4.49872C11.1632 4.78248 10.933 5.00229 10.6446 5.0963C8.91011 5.66169 7.66667 7.27942 7.66667 9.17647V11.8235C7.66667 12.5733 7.51318 13.287 7.2363 13.9355L3.31047 17.8613C3.11324 17.5241 3 17.1316 3 16.7114C3 15.7701 3.57267 15.0465 4.17658 14.6334C5.08056 14.015 5.66667 12.9857 5.66667 11.8235L5.66667 9.17647C5.66667 6.53309 7.3045 4.27745 9.61719 3.34333Z" fill="#2C2A29"/>
<path d="M7.82867 19H18.7019C19.9641 19 21 17.9823 21 16.7114C21 15.7701 20.4273 15.0465 19.8234 14.6334C18.9194 14.015 18.3333 12.9857 18.3333 11.8235V9.17647C18.3333 8.95764 18.3221 8.74146 18.3002 8.52847L16.3333 10.4953V11.8235C16.3333 13.6777 17.272 15.3112 18.6942 16.2841C18.94 16.4523 19 16.6283 19 16.7114C19 16.8638 18.8735 17 18.7019 17H9.82867L7.82867 19Z" fill="#2C2A29"/>
<path d="M8.53516 20C9.22678 21.1956 10.5195 22 12 22C13.4806 22 14.7733 21.1956 15.4649 20H8.53516Z" fill="#2C2A29"/>
</g>
<path d="M21.0002 3.00006L3.00024 21.0001" stroke="#2C2A29" stroke-width="1.5" stroke-linecap="round"/>
</svg>
