<svg width="24" height="24" viewBox="0 0 24 24" fill="none" xmlns="http://www.w3.org/2000/svg">
<path d="M4 13V20C4 20.5523 4.44772 21 5 21H19C19.5523 21 20 20.5523 20 20V13M4 13L7.5 9.5M4 13H20M20 13L17.5 8" stroke="#2C2A29" stroke-width="2" stroke-linecap="round" stroke-linejoin="round"/>
<path fill-rule="evenodd" clip-rule="evenodd" d="M12.0001 13C12.4972 13 12.9001 12.5971 12.9001 12.1V4.07278L14.3637 5.53638C14.7152 5.88785 15.285 5.88785 15.6365 5.53638C15.988 5.18491 15.988 4.61506 15.6365 4.26359L12.6365 1.26359C12.285 0.91212 11.7152 0.91212 11.3637 1.26359L8.3637 4.26359C8.01223 4.61506 8.01223 5.18491 8.3637 5.53638C8.71517 5.88785 9.28502 5.88785 9.63649 5.53638L11.1001 4.07278V12.1C11.1001 12.5971 11.503 13 12.0001 13Z" fill="#2C2A29"/>
</svg>
