<svg width="24" height="24" viewBox="0 0 24 24" fill="none" xmlns="http://www.w3.org/2000/svg">
<path fill-rule="evenodd" clip-rule="evenodd" d="M12 14C13.1046 14 14 14.8954 14 16V20C14 21.1046 13.1046 22 12 22C10.8954 22 10 21.1046 10 20V16C10 14.8954 10.8954 14 12 14Z" fill="#2C2A29"/>
<path fill-rule="evenodd" clip-rule="evenodd" d="M19 2C20.1046 2 21 2.89543 21 4V20C21 21.1046 20.1046 22 19 22C17.8954 22 17 21.1046 17 20V4C17 2.89543 17.8954 2 19 2Z" fill="#2C2A29"/>
<path fill-rule="evenodd" clip-rule="evenodd" d="M5 17C6.10457 17 7 17.8954 7 19V20C7 21.1046 6.10457 22 5 22C3.89543 22 3 21.1046 3 20V19C3 17.8954 3.89543 17 5 17Z" fill="#2C2A29"/>
<path fill-rule="evenodd" clip-rule="evenodd" d="M5.2636 13.7489C5.61508 14.1004 6.18492 14.1004 6.5364 13.7489L12.2125 8.07279L12.2125 10.1426C12.2125 10.6397 12.6154 11.0426 13.1125 11.0426C13.6096 11.0426 14.0125 10.6397 14.0125 10.1426V5.9C14.0125 5.40294 13.6096 5 13.1125 5L8.86986 5C8.3728 5 7.96986 5.40294 7.96986 5.9C7.96986 6.39706 8.3728 6.8 8.86986 6.8L10.9397 6.8L5.2636 12.4761C4.91213 12.8276 4.91213 13.3974 5.2636 13.7489Z" fill="#2C2A29"/>
</svg>
