<svg width="24" height="24" viewBox="0 0 24 24" fill="none" xmlns="http://www.w3.org/2000/svg">
<path d="M18.0655 8.03202C18.0655 7.80015 17.9755 7.56803 17.7983 7.39132L12.6727 2.26574C12.3184 1.91142 11.7447 1.91142 11.3913 2.26574L6.26574 7.39132C5.91142 7.74564 5.91142 8.3193 6.26574 8.67272L6.34361 8.75059C6.69793 9.10491 7.2716 9.10491 7.62501 8.75059L11.1258 5.24976V13.0938C11.1258 13.594 11.5318 14 12.032 14C12.5322 14 12.9382 13.594 12.9382 13.0938L12.9382 5.24976L16.439 8.75059C16.7933 9.10491 17.367 9.10491 17.7204 8.75059L17.7983 8.67272C17.9755 8.49556 18.0655 8.26389 18.0655 8.03202Z" fill="#2C2A29"/>
<path fill-rule="evenodd" clip-rule="evenodd" d="M17.9 20C18.3971 20 18.8 19.5971 18.8 19.1V14.0728L20.2636 15.5364C20.6151 15.8879 21.1849 15.8879 21.5364 15.5364C21.8879 15.1849 21.8879 14.6151 21.5364 14.2636L18.5364 11.2636C18.1849 10.9121 17.6151 10.9121 17.2636 11.2636L14.2636 14.2636C13.9121 14.6151 13.9121 15.1849 14.2636 15.5364C14.6151 15.8879 15.1849 15.8879 15.5364 15.5364L17 14.0728V19.1C17 19.5971 17.4029 20 17.9 20Z" fill="#2C2A29"/>
<path fill-rule="evenodd" clip-rule="evenodd" d="M5.9 22C6.39706 22 6.8 21.5971 6.8 21.1V16.0728L8.2636 17.5364C8.61508 17.8879 9.18492 17.8879 9.5364 17.5364C9.88787 17.1849 9.88787 16.6151 9.5364 16.2636L6.5364 13.2636C6.18492 12.9121 5.61508 12.9121 5.2636 13.2636L2.2636 16.2636C1.91213 16.6151 1.91213 17.1849 2.2636 17.5364C2.61508 17.8879 3.18492 17.8879 3.5364 17.5364L5 16.0728V21.1C5 21.5971 5.40294 22 5.9 22Z" fill="#2C2A29"/>
<rect x="11" y="15" width="2" height="4" rx="1" fill="#2C2A29"/>
<rect x="11" y="20" width="2" height="2" rx="1" fill="#2C2A29"/>
</svg>
