<svg width="24" height="24" viewBox="0 0 24 24" fill="none" xmlns="http://www.w3.org/2000/svg">
<path fill-rule="evenodd" clip-rule="evenodd" d="M17.7882 4.19229C17.3252 3.85456 16.6737 3.97426 16.3609 4.45449L15.0578 6.45554L16.8874 7.6147L16.8125 8.24082C16.5289 10.6095 15.0276 12.6391 13.4224 14.165C11.8015 15.7059 9.94877 16.8537 8.71386 17.4507L8.01362 17.7893L6.18761 15.617L4.43896 16.803C3.95585 17.1306 3.8549 17.8007 4.22001 18.2561L5.69363 20.0942C10.773 19.2696 14.255 16.6117 16.4122 13.6071C18.5804 10.5872 19.3703 7.27716 19.1454 5.18226L17.7882 4.19229ZM14.685 3.36308C15.6232 1.92237 17.5779 1.5633 18.9669 2.57649L20.341 3.57886C20.7446 3.87321 21.0606 4.33496 21.1264 4.90091C21.4383 7.58404 20.4508 11.4114 18.0368 14.7736C15.5969 18.1719 11.658 21.1577 5.99384 22.0717C5.28223 22.1865 4.57655 21.8983 4.139 21.3525L2.65956 19.5071C1.56421 18.1408 1.86707 16.1306 3.31638 15.1477L5.06504 13.9618C5.91326 13.3865 7.05908 13.5456 7.71856 14.3301L8.52754 15.2925C9.55768 14.7172 10.8741 13.828 12.0444 12.7155C13.3353 11.4883 14.3529 10.081 14.716 8.60657L13.9875 8.145C13.0461 7.54862 12.7738 6.29792 13.3819 5.36413L14.685 3.36308Z" fill="#2C2A29"/>
</svg>
