<svg width="30" height="30" viewBox="0 0 30 30" fill="none" xmlns="http://www.w3.org/2000/svg">
<path d="M12.067 5C11.1696 5 10.3929 5.60682 10.0313 6.43182L9.89732 6.74545H5.57143C4.15848 6.74545 3 7.925 3 9.36364V21.5818C3 23.0205 4.15848 24.2 5.57143 24.2H24.4286C25.8415 24.2 27 23.0205 27 21.5818V9.36364C27 7.925 25.8415 6.74545 24.4286 6.74545H20.1094L19.9688 6.43182C19.6004 5.60682 18.8304 5 17.933 5H12.067ZM12.067 6.74545H17.933C18.0804 6.74545 18.2679 6.84773 18.4018 7.14773L18.9978 8.49091H24.4286C24.9107 8.49091 25.2857 8.87273 25.2857 9.36364V21.5818C25.2857 22.0727 24.9107 22.4545 24.4286 22.4545H5.57143C5.08929 22.4545 4.71429 22.0727 4.71429 21.5818V9.36364C4.71429 8.87273 5.08929 8.49091 5.57143 8.49091H11.0022L11.5982 7.14773C11.7254 6.84773 11.9196 6.74545 12.067 6.74545ZM6.42857 10.2364V11.9818H8.14286V10.2364H6.42857ZM15 10.2364C12.1674 10.2364 9.85714 12.5886 9.85714 15.4727C9.85714 18.3568 12.1674 20.7091 15 20.7091C17.8326 20.7091 20.1429 18.3568 20.1429 15.4727C20.1429 12.5886 17.8326 10.2364 15 10.2364ZM15 11.9818C16.9018 11.9818 18.4286 13.5364 18.4286 15.4727C18.4286 17.4091 16.9018 18.9636 15 18.9636C13.0982 18.9636 11.5714 17.4091 11.5714 15.4727C11.5714 13.5364 13.0982 11.9818 15 11.9818Z" fill="#2C2A29"/>
</svg>
