<svg width="30" height="30" viewBox="0 0 30 30" fill="none" xmlns="http://www.w3.org/2000/svg">
<path d="M12.067 5C11.1696 5 10.3929 5.60682 10.0313 6.43182L9.89732 6.74545H5.57143C4.15848 6.74545 3 7.925 3 9.36364V21.5818C3 23.0205 4.15848 24.2 5.57143 24.2H24.4286C25.8415 24.2 27 23.0205 27 21.5818V9.36364C27 7.925 25.8415 6.74545 24.4286 6.74545H20.1094L19.9688 6.43182C19.6004 5.60682 18.8304 5 17.933 5H12.067ZM12.067 6.74545H17.933C18.0804 6.74545 18.2679 6.84773 18.4018 7.14773L18.9978 8.49091H24.4286C24.9107 8.49091 25.2857 8.87273 25.2857 9.36364V21.5818C25.2857 22.0727 24.9107 22.4545 24.4286 22.4545H5.57143C5.08929 22.4545 4.71429 22.0727 4.71429 21.5818V9.36364C4.71429 8.87273 5.08929 8.49091 5.57143 8.49091H11.0022L11.5982 7.14773C11.7254 6.84773 11.9196 6.74545 12.067 6.74545Z" fill="#2C2A29"/>
<g clip-path="url(#clip0)">
<path d="M10.4413 15.5533C10.4182 15.3604 10.4063 15.1686 10.4063 15C10.4063 12.4828 12.4828 10.4062 15 10.4062C16.1742 10.4062 17.2734 10.8797 18.082 11.618L17.6765 12.0305C17.5852 12.1219 17.55 12.2554 17.5852 12.382C17.6274 12.5015 17.7258 12.593 17.8523 12.6211C17.9231 12.6353 20.248 13.3845 20.0999 13.3547C20.2883 13.4174 20.5668 13.2166 20.5149 12.9399C20.5006 12.869 19.9859 10.2864 20.0156 10.4344C19.9875 10.3078 19.8961 10.2024 19.7695 10.1672C19.6501 10.132 19.5164 10.1672 19.425 10.2586L19.0805 10.596C18.0188 9.60471 16.5609 9 15 9C11.7024 9 9 11.7024 9 15V15.014C9 15.2122 9.00906 15.3654 9.01959 15.4826C9.0336 15.6378 9.14804 15.765 9.30093 15.7957L10.0232 15.9401C10.2583 15.9871 10.4697 15.79 10.4413 15.5533Z" fill="#2C2A29"/>
<path d="M20.7012 14.2037L19.9769 14.0561C19.7415 14.0082 19.5286 14.2055 19.5576 14.4432C19.5827 14.6484 19.5938 14.8479 19.5938 15C19.5938 17.5171 17.5173 19.5937 15.0001 19.5937C13.8259 19.5937 12.7266 19.1203 11.918 18.375L12.3235 17.9695C12.4149 17.8781 12.4501 17.7445 12.4149 17.6179C12.3727 17.4983 12.2743 17.407 12.1477 17.3789C12.077 17.3646 9.75209 16.6155 9.90013 16.6453C9.78056 16.6242 9.66099 16.6594 9.58372 16.7437C9.49931 16.821 9.46415 16.9476 9.48521 17.0601C9.49949 17.1309 10.0143 19.69 9.98454 19.5421C10.0126 19.6687 10.104 19.7742 10.2305 19.8092C10.3773 19.846 10.4998 19.8016 10.5751 19.7179L10.9126 19.3804C11.9743 20.3718 13.4321 21 15.0001 21C18.2977 21 21.0001 18.2976 21.0001 15V14.9788C21.0001 14.823 20.9944 14.67 20.9814 14.5179C20.968 14.3626 20.854 14.2349 20.7012 14.2037Z" fill="#2C2A29"/>
</g>
<defs>
<clipPath id="clip0">
<rect width="12" height="12" fill="white" transform="translate(9 9)"/>
</clipPath>
</defs>
</svg>
