<svg width="24" height="24" viewBox="0 0 24 24" fill="none" xmlns="http://www.w3.org/2000/svg">
<path d="M9 10.5C9 11.3284 8.32843 12 7.5 12C6.67157 12 6 11.3284 6 10.5C6 9.67157 6.67157 9 7.5 9C8.32843 9 9 9.67157 9 10.5Z" />
<path fill-rule="evenodd" clip-rule="evenodd" d="M19 12.5C19 14.9853 16.9853 17 14.5 17C12.0147 17 10 14.9853 10 12.5C10 10.0147 12.0147 8 14.5 8C16.9853 8 19 10.0147 19 12.5ZM17 12.5C17 13.8807 15.8807 15 14.5 15C13.1193 15 12 13.8807 12 12.5C12 11.1193 13.1193 10 14.5 10C15.8807 10 17 11.1193 17 12.5Z" />
<path fill-rule="evenodd" clip-rule="evenodd" d="M7.75975 5H5C3.34315 5 2 6.34315 2 8V17C2 18.6569 3.34315 20 5 20H19C20.6569 20 22 18.6569 22 17V8C22 6.34315 20.6569 5 19 5H16.2403C15.6851 4.37982 14.8806 4 14.004 4H9.99599C9.11938 4 8.31487 4.37982 7.75975 5ZM15.3463 7L14.75 6.33388C14.5633 6.12522 14.2954 6 14.004 6H9.99599C9.70462 6 9.43674 6.12522 9.24997 6.33388L8.65373 7H5C4.44772 7 4 7.44772 4 8V17C4 17.5523 4.44772 18 5 18H19C19.5523 18 20 17.5523 20 17V8C20 7.44772 19.5523 7 19 7H15.3463Z" />
</svg>
