<svg width="32" height="32" viewBox="0 0 32 32" fill="none" xmlns="http://www.w3.org/2000/svg">
<path fill-rule="evenodd" clip-rule="evenodd" d="M16 22C18.7614 22 21 19.7614 21 17C21 14.2386 18.7614 12 16 12C13.2386 12 11 14.2386 11 17C11 19.7614 13.2386 22 16 22ZM16 20C17.6569 20 19 18.6569 19 17C19 15.3431 17.6569 14 16 14C14.3431 14 13 15.3431 13 17C13 18.6569 14.3431 20 16 20Z" />
<path d="M8.5 14C9.32843 14 10 13.3284 10 12.5C10 11.6716 9.32843 11 8.5 11C7.67157 11 7 11.6716 7 12.5C7 13.3284 7.67157 14 8.5 14Z" />
<path fill-rule="evenodd" clip-rule="evenodd" d="M10.0535 8H6C4.34315 8 3 9.34315 3 11V23C3 24.6569 4.34315 26 6 26H26C27.6569 26 29 24.6569 29 23V11C29 9.34315 27.6569 8 26 8H21.9465C21.5268 6.81099 20.3987 6 19.1179 6H12.8821C11.6013 6 10.4732 6.81099 10.0535 8ZM20.5315 10L20.0605 8.66565C19.9209 8.27024 19.5443 8 19.1179 8H12.8821C12.4557 8 12.0791 8.27024 11.9395 8.66565L11.4685 10H6C5.44772 10 5 10.4477 5 11V23C5 23.5523 5.44772 24 6 24H26C26.5523 24 27 23.5523 27 23V11C27 10.4477 26.5523 10 26 10H20.5315Z" />
</svg>
