<svg width="16" height="16" viewBox="0 0 16 16" fill="none" xmlns="http://www.w3.org/2000/svg">
<g clip-path="url(#clip0)">
<path fill-rule="evenodd" clip-rule="evenodd" d="M8.23205 1.86603C8.50819 1.38773 9.11978 1.22386 9.59808 1.5L10.4641 2L12.1962 3L13.0622 3.5C13.5405 3.77614 13.7043 4.38773 13.4282 4.86603C13.1521 5.34432 12.5405 5.50819 12.0622 5.23205L10.0622 8.69615L11.7942 9.69615C12.2725 9.97229 12.4364 10.5839 12.1603 11.0622C11.8841 11.5405 11.2725 11.7043 10.7942 11.4282L9.06218 10.4282L8.19615 9.9282L5.69615 14.2583L4.33013 14.6244L3.9641 13.2583L6.4641 8.9282L5.59808 8.4282L3.86603 7.4282C3.38773 7.15206 3.22386 6.54047 3.5 6.06218C3.77614 5.58388 4.38773 5.42001 4.86603 5.69615L6.59808 6.69615L8.59808 3.23205C8.11978 2.95591 7.95591 2.34432 8.23205 1.86603Z" />
</g>
<defs>
<clipPath id="clip0">
<rect width="16" height="16" fill="white"/>
</clipPath>
</defs>
</svg>
