<svg width="24" height="24" viewBox="0 0 24 24" fill="none" xmlns="http://www.w3.org/2000/svg">
<path opacity="0.4" fill-rule="evenodd" clip-rule="evenodd" d="M3 17C3 16.4477 3.44772 16 4 16H16C16.5523 16 17 16.4477 17 17C17 17.5523 16.5523 18 16 18H4C3.44772 18 3 17.5523 3 17Z" fill="#2C2A29"/>
<path fill-rule="evenodd" clip-rule="evenodd" d="M3 12C3 11.4477 3.44772 11 4 11H13C13.5523 11 14 11.4477 14 12C14 12.5523 13.5523 13 13 13H4C3.44772 13 3 12.5523 3 12Z" fill="#2C2A29"/>
<path opacity="0.4" fill-rule="evenodd" clip-rule="evenodd" d="M3 7C3 6.44772 3.44772 6 4 6H19C19.5523 6 20 6.44772 20 7C20 7.55228 19.5523 8 19 8H4C3.44772 8 3 7.55228 3 7Z" fill="#2C2A29"/>
</svg>
