<svg width="24" height="24" viewBox="0 0 24 24" fill="none" xmlns="http://www.w3.org/2000/svg">
<path d="M14 16C13.4477 16 13 15.5523 13 15V11C13 10.4477 13.4477 10 14 10C14.5523 10 15 10.4477 15 11V15C15 15.5523 14.5523 16 14 16Z" fill="#2C2A29"/>
<path d="M9 15C9 15.5523 9.44772 16 10 16C10.5523 16 11 15.5523 11 15V9C11 8.44772 10.5523 8 10 8C9.44771 8 9 8.44772 9 9L9 15Z" fill="#2C2A29"/>
<path fill-rule="evenodd" clip-rule="evenodd" d="M16.0183 20.2439C14.7885 20.7301 13.4293 21 12 21C6.47715 21 2 16.9706 2 12C2 7.02944 6.47715 3 12 3C17.5228 3 22 7.02944 22 12C22 13.7679 21.4336 15.4167 20.4553 16.8075L21.3422 20.1175C21.5415 20.8611 20.861 21.5415 20.1175 21.3423L16.0183 20.2439ZM18.5234 17.3252C18.37 16.7527 18.4785 16.1416 18.8195 15.6568C19.5763 14.5809 20 13.3298 20 12C20 8.32701 16.6217 5 12 5C7.3783 5 4 8.32701 4 12C4 15.673 7.3783 19 12 19C13.1768 19 14.2866 18.7779 15.2829 18.384C15.682 18.2262 16.1213 18.201 16.5359 18.3121L18.9621 18.9622L18.5234 17.3252Z" fill="#2C2A29"/>
</svg>
