<svg width="24" height="24" viewBox="0 0 24 24" fill="none" xmlns="http://www.w3.org/2000/svg">
<path opacity="0.4" d="M20 12C20 16.4183 16.4183 20 12 20C7.58172 20 4 16.4183 4 12C4 7.58172 7.58172 4 12 4C13.7719 4 15.4093 4.57606 16.735 5.55112C17.1718 5.87234 17.787 5.86894 18.1703 5.48558C18.5688 5.08716 18.5635 4.43436 18.1181 4.08934C16.427 2.77955 14.3045 2 12 2C6.47715 2 2 6.47715 2 12C2 17.5228 6.47715 22 12 22C17.5228 22 22 17.5228 22 12C22 11.398 21.9468 10.8085 21.8449 10.2358C21.7074 9.46374 20.7732 9.24665 20.2187 9.80113C19.9587 10.0611 19.8558 10.4357 19.9105 10.7993C19.9694 11.1909 20 11.5919 20 12Z" fill="#2C2A29"/>
<path fill-rule="evenodd" clip-rule="evenodd" d="M21.6445 5.19353C21.2539 4.803 20.6208 4.803 20.2302 5.19353L12.0119 13.4119L7.95576 9.35569C7.56523 8.96517 6.93207 8.96517 6.54155 9.35569C6.15102 9.74621 6.15102 10.3794 6.54155 10.7699L10.5977 14.8261C11.3788 15.6071 12.6451 15.6071 13.4261 14.8261L21.6445 6.60774C22.035 6.21722 22.035 5.58405 21.6445 5.19353Z" fill="#2C2A29"/>
</svg>
