<svg width="24" height="24" viewBox="0 0 24 24" fill="none" xmlns="http://www.w3.org/2000/svg">
<path fill-rule="evenodd" clip-rule="evenodd" d="M12.0001 13.3019C14.2926 13.3019 16.151 11.4434 16.151 9.15094C16.151 6.85844 14.2926 5 12.0001 5C9.70756 5 7.84912 6.85844 7.84912 9.15094C7.84912 11.4434 9.70756 13.3019 12.0001 13.3019ZM12.0001 11.3019C13.188 11.3019 14.151 10.3389 14.151 9.15094C14.151 7.96301 13.188 7 12.0001 7C10.8121 7 9.84912 7.96301 9.84912 9.15094C9.84912 10.3389 10.8121 11.3019 12.0001 11.3019Z" fill="#2C2A29"/>
<path fill-rule="evenodd" clip-rule="evenodd" d="M5.38482 19.4995C7.14773 21.0557 9.46359 22 12 22C17.5228 22 22 17.5228 22 12C22 6.47715 17.5228 2 12 2C6.47715 2 2 6.47715 2 12C2 14.2511 2.74384 16.3286 3.99915 17.9998C3.99911 17.9999 3.9992 17.9998 3.99915 17.9998C4.40918 18.5457 4.87376 19.0483 5.38482 19.4995C5.38478 19.4995 5.38486 19.4994 5.38482 19.4995ZM18.6149 16.5005C19.489 15.2183 20 13.6688 20 12C20 7.58172 16.4183 4 12 4C7.58172 4 4 7.58172 4 12C4 13.6687 4.51093 15.2181 5.38488 16.5003C7.14775 14.9442 9.4635 14 11.9998 14C14.5362 14 16.852 14.9443 18.6149 16.5005ZM17.2915 18.0001C15.8813 16.7553 14.0287 16 11.9998 16C9.97093 16 8.11849 16.7552 6.70824 17.9999C8.11852 19.2447 9.97105 20 12 20C14.0288 20 15.8813 19.2448 17.2915 18.0001Z" fill="#2C2A29"/>
</svg>
