<svg width="24" height="24" viewBox="0 0 24 24" fill="none" xmlns="http://www.w3.org/2000/svg">
<path fill-rule="evenodd" clip-rule="evenodd" d="M12 20C16.4183 20 20 16.4183 20 12C20 7.58172 16.4183 4 12 4C7.58172 4 4 7.58172 4 12C4 16.4183 7.58172 20 12 20ZM12 22C17.5228 22 22 17.5228 22 12C22 6.47715 17.5228 2 12 2C6.47715 2 2 6.47715 2 12C2 17.5228 6.47715 22 12 22Z" fill="#2C2A29"/>
<path fill-rule="evenodd" clip-rule="evenodd" d="M9.34442 6.88267C10.0778 6.33405 11.037 6 12 6C12.9128 6 13.8939 6.25785 14.6628 6.78829C15.4521 7.33285 16.0789 8.22358 15.9976 9.40216C15.8991 10.8308 14.8853 11.7015 14.223 12.2703C14.1812 12.3063 14.1407 12.341 14.102 12.3746C13.3341 13.0408 13 13.4155 13 14C13 14.5523 12.5523 15 12 15C11.4477 15 11 14.5523 11 14C11 12.4174 12.0656 11.4933 12.7631 10.8884C12.7725 10.8802 12.782 10.8721 12.7913 10.864C13.6042 10.1587 13.9649 9.80788 14.0024 9.2645C14.0232 8.96239 13.8922 8.68645 13.527 8.43452C13.1414 8.16847 12.5714 8 12 8C11.4788 8 10.938 8.18828 10.5424 8.48417C10.1405 8.7848 10 9.10163 10 9.33333C10 9.88562 9.55228 10.3333 9 10.3333C8.44772 10.3333 8 9.88562 8 9.33333C8 8.27637 8.61736 7.42654 9.34442 6.88267Z" fill="#2C2A29"/>
<path d="M11 17C11 16.4477 11.4477 16 12 16C12.5523 16 13 16.4477 13 17C13 17.5523 12.5523 18 12 18C11.4477 18 11 17.5523 11 17Z" fill="#2C2A29"/>
</svg>
