<svg width="24" height="24" viewBox="0 0 24 24" fill="none" xmlns="http://www.w3.org/2000/svg">
<path d="M10.9126 4.00033C10.7033 4.00657 10.5066 4.09403 10.3629 4.24395L5 9.60685L10.3629 14.9666C10.5628 15.1759 10.8626 15.2602 11.1406 15.1884C11.4217 15.1165 11.6404 14.8948 11.7122 14.6168C11.7872 14.3357 11.7028 14.039 11.4936 13.8391L8.06094 10.4064H14.9262C16.0038 10.4064 16.769 10.7157 17.2875 11.2341C17.8091 11.7526 18.1246 12.5179 18.1246 13.6048V19.1895C18.1215 19.4768 18.2714 19.7454 18.5212 19.8922C18.7711 20.0359 19.0772 20.0359 19.3271 19.8922C19.577 19.7454 19.7269 19.4768 19.7238 19.1895V13.6048C19.7238 12.193 19.2771 10.9593 18.4182 10.1035C17.5592 9.24453 16.3255 8.80726 14.9262 8.80726H8.06094L11.4936 5.3715C11.731 5.14349 11.7997 4.79055 11.6716 4.48758C11.5435 4.18461 11.2437 3.99096 10.9126 4.00033Z"  stroke-width="0.2"/>
</svg>
