<svg width="24" height="24" viewBox="0 0 24 24" fill="none" xmlns="http://www.w3.org/2000/svg">
<path d="M13 5.14067V4.06275C14.4024 4.23942 15.7393 4.7855 16.8701 5.65319C18.2673 6.72526 19.2716 8.2284 19.7274 9.92946C20.1832 11.6305 20.065 13.4345 19.3911 15.0615C18.7171 16.6885 17.5252 18.0477 16 18.9282C14.4749 19.8088 12.7018 20.1614 10.9558 19.9316C9.2098 19.7017 7.58843 18.9021 6.34316 17.6569C5.09789 16.4116 4.29832 14.7902 4.06846 13.0442C3.83859 11.2982 4.19127 9.52515 5.07181 8.00002C5.34795 7.52172 5.18408 6.91013 4.70579 6.63399C4.22749 6.35785 3.6159 6.52172 3.33976 7.00002C2.23909 8.90643 1.79823 11.1228 2.08557 13.3053C2.3729 15.4878 3.37236 17.5145 4.92895 19.0711C6.48553 20.6277 8.51224 21.6271 10.6948 21.9145C12.8773 22.2018 15.0936 21.7609 17 20.6603C18.9064 19.5596 20.3964 17.8606 21.2388 15.8268C22.0812 13.7931 22.229 11.5382 21.6593 9.41182C21.0895 7.28549 19.8341 5.40657 18.0876 4.06648C16.6071 2.93042 14.8438 2.23542 13 2.05013V0.907179C13 0.513401 12.566 0.274159 12.233 0.484434L8.70511 2.71259C8.38585 2.91423 8.39674 3.38342 8.72502 3.57002L12.2529 5.57536C12.5863 5.76482 13 5.52408 13 5.14067Z" fill="#2C2A29"/>
<path fill-rule="evenodd" clip-rule="evenodd" d="M12.2888 15.615C12.7361 15.945 13.2678 16.11 13.8838 16.11C14.4998 16.11 15.0278 15.945 15.4678 15.615C15.9151 15.285 16.2524 14.823 16.4798 14.229C16.7071 13.6277 16.8208 12.9347 16.8208 12.15C16.8208 11.3654 16.7071 10.676 16.4798 10.082C16.2524 9.48068 15.9151 9.01502 15.4678 8.68502C15.0278 8.35502 14.4998 8.19002 13.8838 8.19002C13.2678 8.19002 12.7361 8.35502 12.2888 8.68502C11.8488 9.01502 11.5151 9.48068 11.2878 10.082C11.0604 10.676 10.9468 11.3654 10.9468 12.15C10.9468 12.9347 11.0604 13.6277 11.2878 14.229C11.5151 14.823 11.8488 15.285 12.2888 15.615ZM14.9838 14.119C14.7198 14.5664 14.3531 14.79 13.8838 14.79C13.4144 14.79 13.0441 14.5664 12.7728 14.119C12.5088 13.6717 12.3768 13.0154 12.3768 12.15C12.3768 11.2847 12.5088 10.6284 12.7728 10.181C13.0441 9.73368 13.4144 9.51002 13.8838 9.51002C14.3531 9.51002 14.7198 9.73368 14.9838 10.181C15.2551 10.6284 15.3908 11.2847 15.3908 12.15C15.3908 13.0154 15.2551 13.6717 14.9838 14.119Z" fill="#2C2A29"/>
<path d="M9.99195 8.49802C9.86728 8.36602 9.71328 8.30002 9.52995 8.30002C9.33928 8.30002 9.18161 8.33302 9.05695 8.39902L7.39595 9.38902C7.29328 9.44768 7.20895 9.52835 7.14295 9.63102C7.08428 9.73368 7.05495 9.84368 7.05495 9.96102C7.05495 10.1297 7.11728 10.2837 7.24195 10.423C7.37395 10.5624 7.53161 10.632 7.71495 10.632C7.83961 10.632 7.95695 10.599 8.06695 10.533L8.74895 10.115V15.329C8.74895 15.5197 8.81495 15.681 8.94695 15.813C9.07895 15.9377 9.24761 16 9.45295 16C9.65828 16 9.83061 15.9377 9.96995 15.813C10.1093 15.681 10.1789 15.5197 10.1789 15.329V8.97102C10.1789 8.78035 10.1166 8.62268 9.99195 8.49802Z" fill="#2C2A29"/>
</svg>
