<svg width="24" height="24" viewBox="0 0 24 24" fill="none" xmlns="http://www.w3.org/2000/svg">
<path d="M9 16C8.44772 16 8 16.4477 8 17C8 17.5523 8.44772 18 9 18H12C12.5523 18 13 17.5523 13 17C13 16.4477 12.5523 16 12 16H9Z" fill="#2C2A29"/>
<path fill-rule="evenodd" clip-rule="evenodd" d="M4 2C2.89543 2 2 2.89543 2 4V20C2 21.1046 2.89543 22 4 22H20C21.1046 22 22 21.1046 22 20V7C22 6.73478 21.8946 6.48043 21.7071 6.29289L17.7071 2.29289C17.5196 2.10536 17.2652 2 17 2H4ZM17 14L17 20H7V14H17ZM19 14V20H20V7.41421L16.5858 4H15V7C15 8.10457 14.1046 9 13 9H8C6.89543 9 6 8.10457 6 7V4L4 4V20H5V14C5 12.8954 5.89543 12 7 12H17C18.1046 12 19 12.8954 19 14ZM13 4H8V7H13V4Z" fill="#2C2A29"/>
</svg>
