<svg width="24" height="24" viewBox="0 0 24 24" fill="none" xmlns="http://www.w3.org/2000/svg">
<path fill-rule="evenodd" clip-rule="evenodd" d="M11.1919 3.81818C11.1361 3.81818 11.0909 3.86341 11.0909 3.91919V4.17336C11.0909 5.0678 10.487 5.76755 9.75616 6.04298C9.62722 6.09157 9.50025 6.14425 9.37541 6.20085L9.00001 5.37289L9.37541 6.20085C8.66364 6.52357 7.74147 6.45576 7.10891 5.8232L6.92889 5.64319C6.88945 5.60374 6.82549 5.60374 6.78604 5.64319L5.64325 6.78599C5.6038 6.82543 5.6038 6.88939 5.64325 6.92884L5.82324 7.10883L5.18042 7.75166L5.82324 7.10883C6.4558 7.74139 6.52361 8.66358 6.20088 9.37535C6.14427 9.50021 6.09158 9.62719 6.04298 9.75616L5.1923 9.43555L6.04298 9.75616C5.76755 10.487 5.0678 11.0909 4.17336 11.0909H3.91919C3.86341 11.0909 3.81818 11.1361 3.81818 11.1919V12.8081C3.81818 12.8639 3.86341 12.9091 3.91919 12.9091H4.17336C5.0678 12.9091 5.76755 13.513 6.04298 14.2438C6.09157 14.3728 6.14425 14.4998 6.20085 14.6246C6.52357 15.3364 6.45576 16.2585 5.8232 16.8911L5.64308 17.0712C5.60363 17.1107 5.60363 17.1746 5.64308 17.2141L6.78588 18.3569L6.14305 18.9997L6.78588 18.3569C6.82532 18.3963 6.88928 18.3963 6.92872 18.3569L7.10883 18.1768L7.75166 18.8196L7.10883 18.1768C7.74139 17.5442 8.66358 17.4764 9.37535 17.7991C9.50021 17.8557 9.62719 17.9084 9.75616 17.957C10.487 18.2325 11.0909 18.9322 11.0909 19.8266V20.0808C11.0909 20.1366 11.1361 20.1818 11.1919 20.1818H12.8081C12.8639 20.1818 12.9091 20.1366 12.9091 20.0808V19.8266C12.9091 18.9322 13.513 18.2325 14.2438 17.957C14.3728 17.9084 14.4998 17.8557 14.6246 17.7991C15.3364 17.4764 16.2586 17.5442 16.8912 18.1768L17.0712 18.3568C17.1107 18.3963 17.1746 18.3963 17.2141 18.3568L18.3569 17.214C18.3963 17.1746 18.3963 17.1106 18.3569 17.0712L18.1768 16.8911C17.5442 16.2585 17.4764 15.3364 17.7992 14.6246C17.8558 14.4998 17.9084 14.3728 17.957 14.2438C18.2325 13.513 18.9322 12.9091 19.8266 12.9091H20.0808C20.1366 12.9091 20.1818 12.8639 20.1818 12.8081V11.1919C20.1818 11.1361 20.1366 11.0909 20.0808 11.0909H19.8266C18.9322 11.0909 18.2325 10.487 17.957 9.75616C17.9084 9.62719 17.8557 9.50021 17.7991 9.37535C17.4764 8.66358 17.5442 7.74139 18.1768 7.10883L18.3567 6.92888C18.3962 6.88943 18.3962 6.82547 18.3567 6.78603L18.9995 6.1432L18.3567 6.78603L17.2139 5.64323C17.1745 5.60378 17.1105 5.60378 17.0711 5.64323L16.454 5.02612L17.0711 5.64323L16.8911 5.8232C16.2585 6.45576 15.3364 6.52357 14.6246 6.20085C14.4998 6.14425 14.3728 6.09157 14.2438 6.04298C13.513 5.76755 12.9091 5.0678 12.9091 4.17335V3.91919C12.9091 3.86341 12.8639 3.81818 12.8081 3.81818H11.1919ZM9.27273 3.91919C9.27273 2.85925 10.132 2 11.1919 2H12.8081C13.868 2 14.7273 2.85925 14.7273 3.91919V4.17335C14.7273 4.19147 14.7325 4.21676 14.7568 4.24912C14.7828 4.28383 14.8267 4.31961 14.8851 4.34162L14.5644 5.1923L14.8851 4.34162C15.0512 4.40422 15.2147 4.47206 15.3754 4.54493C15.4321 4.57063 15.4883 4.57635 15.5311 4.57025C15.5711 4.56456 15.5926 4.55038 15.6054 4.53756L15.7854 4.35758L16.4282 5.0004L15.7854 4.35758C16.5349 3.60809 17.7501 3.60809 18.4996 4.35758L19.6424 5.50038C20.3919 6.24987 20.3919 7.46503 19.6424 8.21453L19.4624 8.39448C19.4496 8.40731 19.4354 8.42886 19.4297 8.46881C19.4236 8.51167 19.4293 8.56786 19.455 8.62454C19.5279 8.78528 19.5958 8.94882 19.6584 9.11495C19.6804 9.17332 19.7162 9.2172 19.7509 9.24325C19.7832 9.26752 19.8085 9.27273 19.8266 9.27273H20.0808C21.1407 9.27273 22 10.132 22 11.1919V12.8081C22 13.868 21.1407 14.7273 20.0808 14.7273H19.8266C19.8085 14.7273 19.7832 14.7325 19.7509 14.7568C19.7162 14.7828 19.6804 14.8267 19.6584 14.8851C19.5958 15.0512 19.5279 15.2147 19.4551 15.3754C19.4294 15.4321 19.4236 15.4883 19.4298 15.5311C19.4354 15.5711 19.4496 15.5926 19.4624 15.6054L19.6425 15.7855C20.392 16.535 20.392 17.7502 19.6425 18.4997L18.4997 19.6425C17.7502 20.392 16.5351 20.392 15.7856 19.6425L15.6055 19.4624C15.5927 19.4496 15.5711 19.4354 15.5312 19.4297C15.4883 19.4236 15.4321 19.4293 15.3755 19.455L15.0001 18.6271L15.3755 19.455C15.2147 19.5279 15.0512 19.5958 14.8851 19.6584C14.8267 19.6804 14.7828 19.7162 14.7568 19.7509C14.7325 19.7832 14.7273 19.8085 14.7273 19.8266V20.0808C14.7273 21.1407 13.868 22 12.8081 22H11.1919C10.132 22 9.27273 21.1407 9.27273 20.0808V19.8266C9.27273 19.8085 9.26752 19.7832 9.24325 19.7509C9.2172 19.7162 9.17332 19.6804 9.11495 19.6584C8.94882 19.5958 8.78528 19.5279 8.62454 19.455C8.56785 19.4293 8.51167 19.4236 8.46881 19.4297C8.42886 19.4354 8.40731 19.4496 8.39448 19.4624L8.21438 19.6425C7.46488 20.392 6.24972 20.392 5.50023 19.6425L5.97775 19.165L5.50023 19.6425L4.35743 18.4997C3.60794 17.7502 3.60794 16.5351 4.35743 15.7856L4.53756 15.6054C4.55038 15.5926 4.56456 15.5711 4.57025 15.5311C4.57635 15.4883 4.57063 15.4321 4.54493 15.3754L5.37289 15L4.54493 15.3754C4.47206 15.2147 4.40422 15.0512 4.34162 14.8851L4.9255 14.665L4.34162 14.8851C4.31961 14.8267 4.28383 14.7828 4.24912 14.7568C4.21676 14.7325 4.19147 14.7273 4.17336 14.7273H3.91919C2.85925 14.7273 2 13.868 2 12.8081V11.1919C2 10.132 2.85925 9.27273 3.91919 9.27273H4.17336C4.19147 9.27273 4.21677 9.26752 4.24912 9.24324C4.28383 9.2172 4.31962 9.17332 4.34162 9.11494C4.40423 8.94882 4.47208 8.78528 4.54496 8.62454C4.57066 8.56785 4.57639 8.51167 4.57028 8.46881C4.56459 8.42886 4.55042 8.40731 4.53759 8.39448L4.3576 8.21449L5.00042 7.57166L4.3576 8.21448C3.60811 7.46499 3.60811 6.24983 4.3576 5.50034L5.5004 4.35754C6.24989 3.60805 7.46505 3.60805 8.21454 4.35754L8.39456 4.53756C8.40739 4.55038 8.42894 4.56456 8.46888 4.57025C8.51175 4.57635 8.56793 4.57063 8.62461 4.54493L8.97123 5.3094L8.62462 4.54493C8.78533 4.47206 8.94884 4.40422 9.11494 4.34162L9.42907 5.1751L9.11495 4.34162C9.17332 4.31961 9.2172 4.28383 9.24325 4.24912C9.26752 4.21677 9.27273 4.19147 9.27273 4.17336V3.91919ZM12 9.87879C10.8285 9.87879 9.87879 10.8285 9.87879 12C9.87879 13.1715 10.8285 14.1212 12 14.1212C13.1715 14.1212 14.1212 13.1715 14.1212 12C14.1212 10.8285 13.1715 9.87879 12 9.87879ZM8.06061 12C8.06061 9.82433 9.82433 8.06061 12 8.06061C14.1757 8.06061 15.9394 9.82433 15.9394 12C15.9394 14.1757 14.1757 15.9394 12 15.9394C9.82433 15.9394 8.06061 14.1757 8.06061 12Z" fill="#2C2A29"/>
</svg>
