<svg width="24" height="24" viewBox="0 0 24 24" fill="none" xmlns="http://www.w3.org/2000/svg">
<path d="M10.8798 6.97716C10.7122 7.64466 10.3769 8.24557 9.92124 8.73249L14.1202 11.0228C14.2878 10.3553 14.6231 9.75443 15.0788 9.26751L10.8798 6.97716Z" fill="#2C2A29"/>
<path d="M15.0788 14.7325C14.6231 14.2456 14.2878 13.6447 14.1202 12.9772L9.92124 15.2675C10.3769 15.7544 10.7122 16.3553 10.8798 17.0228L15.0788 14.7325Z" fill="#2C2A29"/>
<path fill-rule="evenodd" clip-rule="evenodd" d="M7 10C9.20914 10 11 8.20914 11 6C11 3.79086 9.20914 2 7 2C4.79086 2 3 3.79086 3 6C3 8.20914 4.79086 10 7 10ZM7 8C8.10457 8 9 7.10457 9 6C9 4.89543 8.10457 4 7 4C5.89543 4 5 4.89543 5 6C5 7.10457 5.89543 8 7 8Z" fill="#2C2A29"/>
<path fill-rule="evenodd" clip-rule="evenodd" d="M7 22C9.20914 22 11 20.2091 11 18C11 15.7909 9.20914 14 7 14C4.79086 14 3 15.7909 3 18C3 20.2091 4.79086 22 7 22ZM7 20C8.10457 20 9 19.1046 9 18C9 16.8954 8.10457 16 7 16C5.89543 16 5 16.8954 5 18C5 19.1046 5.89543 20 7 20Z" fill="#2C2A29"/>
<path fill-rule="evenodd" clip-rule="evenodd" d="M22 12C22 14.2091 20.2091 16 18 16C15.7909 16 14 14.2091 14 12C14 9.79086 15.7909 8 18 8C20.2091 8 22 9.79086 22 12ZM20 12C20 13.1046 19.1046 14 18 14C16.8954 14 16 13.1046 16 12C16 10.8954 16.8954 10 18 10C19.1046 10 20 10.8954 20 12Z" fill="#2C2A29"/>
</svg>
