<svg width="24" height="24" viewBox="0 0 24 24" fill="none" xmlns="http://www.w3.org/2000/svg">
<path d="M15.7071 9.70711C16.0976 9.31658 16.0976 8.68342 15.7071 8.29289C15.3166 7.90237 14.6834 7.90237 14.2929 8.29289L11 11.5858L9.70711 10.2929C9.31658 9.90237 8.68342 9.90237 8.29289 10.2929C7.90237 10.6834 7.90237 11.3166 8.29289 11.7071L10.2929 13.7071C10.6834 14.0976 11.3166 14.0976 11.7071 13.7071L15.7071 9.70711Z" fill="#2C2A29"/>
<path fill-rule="evenodd" clip-rule="evenodd" d="M4.02644 3.87053C4.02644 3.87042 4.02644 3.87035 5.026 3.9C4.81786 2.9219 4.81794 2.92188 4.81804 2.92186L4.83214 2.91888L4.87025 2.9109C4.90337 2.90401 4.95168 2.89402 5.0138 2.88139C5.13801 2.85613 5.31752 2.82026 5.54113 2.77732C5.98803 2.6915 6.61271 2.57712 7.32511 2.46266C8.73494 2.23615 10.5439 2 12 2C13.4562 2 15.2651 2.23615 16.6749 2.46266C17.3873 2.57712 18.012 2.6915 18.4589 2.77732C18.6825 2.82026 18.862 2.85613 18.9862 2.88139C19.0483 2.89402 19.0967 2.90401 19.1298 2.9109L19.1679 2.91888L19.182 2.92186C19.1821 2.92188 19.1822 2.9219 18.974 3.9C19.9736 3.87036 19.9736 3.87044 19.9736 3.87054L19.9741 3.8902L19.9756 3.94504C19.9769 3.99286 19.9786 4.06284 19.9805 4.15256C19.9845 4.33198 19.9894 4.59054 19.9932 4.90906C20.001 5.54566 20.0049 6.42392 19.989 7.38981C19.9579 9.28755 19.8503 11.6372 19.5133 13.1214C18.9199 15.7344 17.1164 17.9268 15.5655 19.4166C14.7777 20.1733 14.0262 20.7761 13.471 21.1904C13.1929 21.3979 12.9626 21.5592 12.7999 21.6698C12.7184 21.7252 12.6538 21.7679 12.6084 21.7976C12.5967 21.8052 12.5863 21.812 12.5771 21.8179C12.5686 21.8234 12.5612 21.8282 12.555 21.8321L12.5397 21.8419L12.535 21.8449L12.5333 21.8459C12.5331 21.8461 12.5322 21.8466 12 21C11.4678 21.8466 11.4676 21.8465 11.4673 21.8463L11.4651 21.8449L11.4603 21.8419L11.445 21.8321C11.4322 21.8239 11.4143 21.8124 11.3916 21.7976C11.3462 21.7679 11.2816 21.7252 11.2002 21.6698C11.0374 21.5592 10.8071 21.3979 10.529 21.1904C9.97384 20.7761 9.22232 20.1733 8.43451 19.4166C6.8836 17.9268 5.08 15.7344 4.48667 13.1214C4.14963 11.6372 4.04204 9.28754 4.01095 7.3898C3.99512 6.42391 3.99898 5.54565 4.00676 4.90905C4.01066 4.59053 4.01555 4.33197 4.01947 4.15255C4.02144 4.06282 4.02316 3.99285 4.02441 3.94503L4.02588 3.89019L4.02644 3.87053ZM6.00661 4.93351L6.00943 4.72401C6.43332 4.64335 7.00148 4.54031 7.64237 4.43734C9.03337 4.21385 10.7115 4 12 4C13.2886 4 14.9667 4.21385 16.3577 4.43734C16.9985 4.54031 17.5667 4.64335 17.9906 4.72401L17.9934 4.9335C18.001 5.55666 18.0047 6.41511 17.9893 7.35703C17.9579 9.27489 17.8475 11.4253 17.5629 12.6786C17.0994 14.72 15.6339 16.5776 14.18 17.9742C13.4654 18.6607 12.7805 19.2102 12.2749 19.5874C12.1758 19.6614 12.0838 19.7286 12 19.7887C11.9162 19.7286 11.8242 19.6614 11.7251 19.5874C11.2195 19.2102 10.5346 18.6607 9.82001 17.9742C8.36606 16.5776 6.90056 14.72 6.43702 12.6786C6.15243 11.4253 6.0421 9.2749 6.01068 7.35704C5.99525 6.41512 5.99899 5.55667 6.00661 4.93351Z" fill="#2C2A29"/>
<path d="M12 21L12.5322 21.8466C12.2069 22.0511 11.7926 22.0508 11.4673 21.8463L12 21Z" fill="#2C2A29"/>
<path d="M18.974 3.9L19.182 2.92186C19.6329 3.01781 19.9599 3.40976 19.9736 3.87054L18.974 3.9Z" fill="#2C2A29"/>
<path d="M4.81804 2.92186L5.026 3.9L4.02644 3.87053C4.04011 3.40976 4.36716 3.01781 4.81804 2.92186Z" fill="#2C2A29"/>
</svg>
