<svg width="24" height="24" viewBox="0 0 24 24" fill="none" xmlns="http://www.w3.org/2000/svg">
<path fill-rule="evenodd" clip-rule="evenodd" d="M22 12C22 17.5228 17.5228 22 12 22C6.47715 22 2 17.5228 2 12C2 6.47715 6.47715 2 12 2C17.5228 2 22 6.47715 22 12ZM20 12C20 16.4183 16.4183 20 12 20C7.58172 20 4 16.4183 4 12C4 7.58172 7.58172 4 12 4C16.4183 4 20 7.58172 20 12Z" />
<circle cx="9.5" cy="8.5" r="1.5" />
<circle cx="14.5" cy="8.5" r="1.5" />
<path d="M16 12C17.1046 12 18.0312 12.9194 17.6697 13.9632C17.6309 14.0752 17.5888 14.1863 17.5433 14.2961C17.2417 15.0241 16.7998 15.6855 16.2426 16.2426C15.6855 16.7998 15.0241 17.2417 14.2961 17.5433C13.5681 17.8448 12.7879 18 12 18C11.2121 18 10.4319 17.8448 9.7039 17.5433C8.97595 17.2417 8.31451 16.7998 7.75736 16.2426C7.20021 15.6855 6.75825 15.0241 6.45672 14.2961C6.41123 14.1863 6.36906 14.0752 6.33026 13.9632C5.96885 12.9194 6.89543 12 8 12L12 12H16Z" />
</svg>
