<svg width="24" height="24" viewBox="0 0 24 24" fill="none" xmlns="http://www.w3.org/2000/svg">
<path fill-rule="evenodd" clip-rule="evenodd" d="M13.9787 3.28203C15.3119 2.4901 17.0001 3.45088 17.0001 5.00154V19.1385C17.0001 20.6891 15.3119 21.6499 13.9787 20.858L8.71725 17.7326C8.56283 17.641 8.3866 17.5926 8.20706 17.5926H5C3.34315 17.5926 2 16.2495 2 14.5926V9.60077C2 7.94391 3.34315 6.60077 5 6.60077H8.11715C8.2969 6.60077 8.47333 6.55232 8.62786 6.46052L13.9787 3.28203ZM15.0001 5.00154L9.64928 8.18003C9.44411 8.3019 9.22607 8.39831 9 8.46792V15.6993C9.25763 15.7699 9.50583 15.8749 9.73763 16.0124L15.0001 19.1385L15.0001 5.00154ZM7 15.5926V8.60077H5C4.44772 8.60077 4 9.04848 4 9.60077V14.5926C4 15.1449 4.44772 15.5926 5 15.5926H7Z" />
<path d="M17.6873 7.9185C18.046 7.7114 18.5047 7.8343 18.7118 8.19302C19.392 9.37117 19.7501 10.7076 19.7501 12.068C19.7501 13.4284 19.392 14.7649 18.7118 15.943C18.5047 16.3017 18.046 16.4246 17.6873 16.2175C17.3285 16.0104 17.2056 15.5517 17.4127 15.193C17.9613 14.2429 18.2501 13.1651 18.2501 12.068C18.2501 10.9709 17.9613 9.89314 17.4127 8.94302C17.2056 8.5843 17.3285 8.12561 17.6873 7.9185Z" />
<path d="M19.5076 4.56046C19.2147 4.26757 18.7399 4.26757 18.447 4.56046C18.1541 4.85335 18.1541 5.32823 18.447 5.62112C19.2936 6.46774 19.9652 7.47282 20.4233 8.57899C20.8815 9.68515 21.1174 10.8707 21.1174 12.068C21.1174 13.2653 20.8815 14.4509 20.4233 15.5571C19.9652 16.6632 19.2936 17.6683 18.447 18.5149C18.1541 18.8078 18.1541 19.2827 18.447 19.5756C18.7399 19.8685 19.2147 19.8685 19.5076 19.5756C20.4935 18.5897 21.2756 17.4192 21.8092 16.1311C22.3427 14.8429 22.6174 13.4623 22.6174 12.068C22.6174 10.6737 22.3427 9.29311 21.8092 8.00496C21.2756 6.71681 20.4935 5.54637 19.5076 4.56046Z" />
</svg>
