<svg width="16" height="16" viewBox="0 0 16 16" fill="none" xmlns="http://www.w3.org/2000/svg">
<path fill-rule="evenodd" clip-rule="evenodd" d="M13.6274 2.4538C13.0914 1.70694 12.044 1.35999 11.1056 1.8292L7.10557 3.82919L7.10136 3.83131L6.76393 4.00003L4 4.00003C2.89543 4.00003 2 4.89546 2 6.00003V10C2 11.1046 2.89543 12 4 12H6.76393L11.1056 14.1708C12.109 14.6725 13.2351 14.243 13.7329 13.383C13.9031 13.0889 14 12.7469 14 12.382L14 3.61805C14 3.18102 13.8612 2.77951 13.6274 2.4538ZM8.00003 5.61803L12 3.61806V12.382L8 10.382L8.00003 5.61803ZM6 6.00003L4 6.00003V10H6L6 6.00003Z" fill="#2C2A29"/>
</svg>
