<svg width="24" height="24" viewBox="0 0 24 24" fill="none" xmlns="http://www.w3.org/2000/svg">
<path opacity="0.4" fill-rule="evenodd" clip-rule="evenodd" d="M20.8148 17.9864C21.206 17.4038 21.5393 16.7825 21.8092 16.1311C22.3427 14.8429 22.6174 13.4623 22.6174 12.068C22.6174 10.6737 22.3427 9.29311 21.8092 8.00496C21.2756 6.71681 20.4935 5.54637 19.5076 4.56046C19.2147 4.26757 18.7399 4.26757 18.447 4.56046C18.1541 4.85335 18.1541 5.32823 18.447 5.62112C19.2936 6.46774 19.9652 7.47282 20.4233 8.57899C20.8815 9.68515 21.1174 10.8707 21.1174 12.068C21.1174 13.2653 20.8815 14.4509 20.4233 15.5571C20.2296 16.0249 19.9976 16.4746 19.7304 16.902L20.8148 17.9864ZM18.7335 15.9051C19.3996 14.7362 19.7501 13.4139 19.7501 12.068C19.7501 10.7076 19.392 9.37117 18.7118 8.19302C18.5047 7.8343 18.046 7.7114 17.6873 7.9185C17.3285 8.12561 17.2056 8.5843 17.4127 8.94302C17.9613 9.89314 18.2501 10.9709 18.2501 12.068C18.2501 13.0147 18.0351 13.947 17.6237 14.7952L18.7335 15.9051ZM17.0001 14.1717V5.00154C17.0001 3.45088 15.3119 2.4901 13.9787 3.28203L9.04259 6.21416L10.502 7.67352L15.0001 5.00154L15.0001 12.1717L17.0001 14.1717ZM9 11.8284V15.6993C9.25763 15.7699 9.50583 15.8749 9.73763 16.0124L15.0001 19.1385V17.8285L16.9105 19.7389C16.5447 20.9192 15.1294 21.5415 13.9787 20.858L8.71725 17.7326C8.56283 17.641 8.3866 17.5926 8.20706 17.5926H5C3.34315 17.5926 2 16.2495 2 14.5926V9.60077C2 8.31023 2.81488 7.21002 3.95818 6.78661L5.77234 8.60077H5C4.44772 8.60077 4 9.04848 4 9.60077V14.5926C4 15.1449 4.44772 15.5926 5 15.5926H7V9.82843L9 11.8284Z" />
<path d="M3 3L21 21" stroke="#2C2A29" stroke-width="1.5" stroke-linecap="round"/>
</svg>
