<svg width="16" height="16" viewBox="0 0 16 16" fill="none" xmlns="http://www.w3.org/2000/svg">
<path opacity="0.4" fill-rule="evenodd" clip-rule="evenodd" d="M6.12139 12H6.76393L11.1056 14.1708C12.109 14.6725 13.2351 14.243 13.7329 13.383C13.9031 13.0889 14 12.7469 14 12.382L14 4.12141L12 6.12141V12.382L8 10.382L8 10.1214L6.12139 12ZM8.52145 5.35733L8.00003 5.61803L8.00002 5.87875L6 7.87877V6.00003L4 6.00003V9.87877L2.52645 11.3523C2.19955 10.9963 2 10.5215 2 10V6.00003C2 4.89546 2.89543 4.00003 4 4.00003L6.76393 4.00003L7.10136 3.83131L7.10557 3.82919L11.1056 1.8292C11.4819 1.64104 11.8758 1.58413 12.2471 1.63163L8.52145 5.35733Z" fill="#2C2A29"/>
<path d="M14 2L2 14" stroke="#2C2A29" stroke-width="1.5" stroke-linecap="round"/>
</svg>
