<svg width="24" height="24" viewBox="0 0 24 24" fill="none" xmlns="http://www.w3.org/2000/svg">
<path fill-rule="evenodd" clip-rule="evenodd" d="M10.336 4.09108C10.9516 2.63631 13.0484 2.6363 13.664 4.09107L15.2424 7.821L19.3393 8.14382C20.9372 8.26973 21.5851 10.2297 20.3677 11.2547L17.2463 13.8828L18.1999 17.8122C18.5719 19.3448 16.8756 20.5561 15.5075 19.7348L12 17.6291L8.49247 19.7348C7.12444 20.5561 5.42814 19.3448 5.80008 17.8122L6.75373 13.8828L3.63231 11.2547C2.41488 10.2297 3.0628 8.26973 4.66071 8.14382L8.75763 7.821L10.336 4.09108ZM13.5784 8.50124L12 4.77131L10.4216 8.50124C10.1621 9.11453 9.57528 9.53357 8.90164 9.58665L4.80472 9.90947L7.92614 12.5375C8.43938 12.9696 8.66352 13.6476 8.50672 14.2937L7.55307 18.2232L11.0606 16.1175C11.6373 15.7712 12.3627 15.7713 12.9394 16.1175L16.4469 18.2232L15.4933 14.2937C15.3365 13.6476 15.5606 12.9696 16.0739 12.5375L19.1953 9.90947L15.0984 9.58665C14.4247 9.53357 13.8379 9.11453 13.5784 8.50124Z" fill="#2C2A29"/>
</svg>
