<svg width="24" height="24" viewBox="0 0 24 24" fill="none" xmlns="http://www.w3.org/2000/svg">
<path d="M11.0753 3.6091C11.4174 2.79697 12.5826 2.79697 12.9247 3.6091L14.679 7.77362C14.8232 8.11599 15.1493 8.34993 15.5237 8.37956L20.0771 8.74C20.9651 8.81029 21.3252 9.90446 20.6486 10.4767L17.1794 13.4109C16.8941 13.6522 16.7696 14.0307 16.8567 14.3914L17.9166 18.7786C18.1233 19.6342 17.1807 20.3104 16.4204 19.852L12.522 17.5009C12.2015 17.3076 11.7985 17.3076 11.478 17.5009L7.57957 19.852C6.81933 20.3104 5.87667 19.6342 6.08336 18.7786L7.14328 14.3914C7.23041 14.0307 7.10586 13.6522 6.82064 13.4109L3.35139 10.4767C2.67484 9.90446 3.0349 8.81029 3.92288 8.74L8.47634 8.37956C8.8507 8.34993 9.17679 8.11599 9.32102 7.77362L11.0753 3.6091Z" fill="#2C2A29"/>
</svg>
