<svg width="24" height="24" viewBox="0 0 24 24" fill="none" xmlns="http://www.w3.org/2000/svg">
<path d="M11.5245 2.46352C11.6741 2.00287 12.3259 2.00287 12.4755 2.46353L14.3574 8.25532C14.4243 8.46133 14.6163 8.60081 14.8329 8.60081H20.9228C21.4071 8.60081 21.6085 9.22062 21.2167 9.50532L16.2899 13.0848C16.1146 13.2122 16.0413 13.4379 16.1082 13.6439L17.9901 19.4357C18.1398 19.8963 17.6125 20.2794 17.2207 19.9947L12.2939 16.4152C12.1186 16.2878 11.8814 16.2878 11.7061 16.4152L6.77931 19.9947C6.38745 20.2794 5.86021 19.8963 6.00989 19.4357L7.89176 13.6439C7.9587 13.4379 7.88537 13.2122 7.71012 13.0848L2.78333 9.50532C2.39147 9.22062 2.59286 8.60081 3.07722 8.60081H9.16708C9.38369 8.60081 9.57567 8.46133 9.6426 8.25532L11.5245 2.46352Z" fill="#2C2A29"/>
</svg>
