<svg width="24" height="24" viewBox="0 0 24 24" fill="none" xmlns="http://www.w3.org/2000/svg">
<path fill-rule="evenodd" clip-rule="evenodd" d="M1.17701 9.42097L4.00018 10.6154V17.8246C4.00019 19.9134 7.58191 21.6066 12.0002 21.6066C16.4185 21.6066 20.0002 19.9133 20.0002 17.8246V10.6154L21.2369 10.0922V13.4856L20.9243 13.9086C20.7937 14.0852 20.7937 14.3263 20.9243 14.5029L21.1859 14.8569C21.2196 14.9026 21.2609 14.9421 21.3078 14.9739L21.4889 15.0964C21.6581 15.2109 21.88 15.2109 22.0492 15.0964L22.2303 14.9739C22.2773 14.9421 22.3185 14.9026 22.3522 14.8569L22.6138 14.5029C22.7444 14.3263 22.7444 14.0852 22.6138 13.9086L22.3013 13.4856V9.64185L22.8233 9.42097C23.6372 9.07666 23.6372 7.92334 22.8233 7.57904L13.5587 3.65939C12.5624 3.23788 11.4379 3.23788 10.4416 3.65939L1.17701 7.57904C0.363197 7.92334 0.363197 9.07666 1.17701 9.42097ZM19.8672 8.5L12.7795 5.50133C12.2813 5.29057 11.719 5.29057 11.2209 5.50133L4.13312 8.5L11.2209 11.4987C11.469 11.6036 11.733 11.6563 11.9971 11.6567H12.0033C12.2674 11.6563 12.5314 11.6036 12.7795 11.4987L19.8672 8.5ZM18.0002 11.6332L14.338 13.1825C12.8436 13.8148 11.1568 13.8148 9.66234 13.1825L6.00018 11.6332V17.7842C6.00018 17.7842 6.00233 17.7881 6.00452 17.7927C6.03357 17.8536 6.20985 18.2236 7.19812 18.6908C8.32367 19.2229 10.0192 19.6066 12.0002 19.6066C13.9811 19.6066 15.6767 19.2229 16.8022 18.6908C17.7905 18.2236 17.9668 17.8536 17.9958 17.7927C17.998 17.7881 18.0002 17.7842 18.0002 17.7842V11.6332Z" />
</svg>
