<svg width="30" height="30" viewBox="0 0 30 30" fill="none" xmlns="http://www.w3.org/2000/svg">
<circle cx="22.1" cy="22.1" r="5.2" stroke="#2C2A29" stroke-width="1.8"/>
<path d="M21.2461 19.538C21.2461 19.0663 21.6284 18.684 22.1001 18.684C22.5717 18.684 22.9541 19.0663 22.9541 19.538V24.662C22.9541 25.1336 22.5717 25.516 22.1001 25.516C21.6284 25.516 21.2461 25.1336 21.2461 24.662V19.538Z" fill="#2C2A29"/>
<path d="M24.6621 21.246C25.1338 21.246 25.5161 21.6283 25.5161 22.1C25.5161 22.5716 25.1338 22.954 24.6621 22.954L19.5381 22.954C19.0665 22.954 18.6841 22.5716 18.6841 22.1C18.6841 21.6283 19.0665 21.246 19.5381 21.246L24.6621 21.246Z" fill="#2C2A29"/>
<path fill-rule="evenodd" clip-rule="evenodd" d="M10.0313 3.43182C10.3929 2.60682 11.1696 2 12.067 2H17.933C18.8304 2 19.6004 2.60682 19.9688 3.43182L20.1094 3.74545H24.4286C25.8415 3.74545 27 4.925 27 6.36364V18.4662C26.5349 17.8401 25.9527 17.3062 25.2857 16.8969V6.36364C25.2857 5.87273 24.9107 5.49091 24.4286 5.49091H18.9978L18.4018 4.14773C18.2679 3.84773 18.0804 3.74545 17.933 3.74545H12.067C11.9196 3.74545 11.7254 3.84773 11.5982 4.14773L11.0022 5.49091H5.57143C5.08929 5.49091 4.71429 5.87273 4.71429 6.36364V18.5818C4.71429 19.0727 5.08929 19.4545 5.57143 19.4545H16.6019C16.3406 19.9966 16.1571 20.5833 16.0659 21.2H5.57143C4.15848 21.2 3 20.0205 3 18.5818V6.36364C3 4.925 4.15848 3.74545 5.57143 3.74545H9.89732L10.0313 3.43182ZM6.42857 8.98182V7.23636H8.14286V8.98182H6.42857ZM9.85714 12.4727C9.85714 9.58864 12.1674 7.23636 15 7.23636C17.8326 7.23636 20.1429 9.58864 20.1429 12.4727C20.1429 15.3568 17.8326 17.7091 15 17.7091C12.1674 17.7091 9.85714 15.3568 9.85714 12.4727ZM18.4286 12.4727C18.4286 10.5364 16.9018 8.98182 15 8.98182C13.0982 8.98182 11.5714 10.5364 11.5714 12.4727C11.5714 14.4091 13.0982 15.9636 15 15.9636C16.9018 15.9636 18.4286 14.4091 18.4286 12.4727Z" fill="#2C2A29"/>
</svg>
