<svg width="24" height="24" viewBox="0 0 24 24" fill="none" xmlns="http://www.w3.org/2000/svg">
<path fill-rule="evenodd" clip-rule="evenodd" d="M11.0002 3C11.0002 2.44772 11.448 2 12.0002 2C14.4263 2 16.7697 2.88198 18.5937 4.4816C20.4177 6.08123 21.598 8.28941 21.9147 10.6947C22.2314 13.1001 21.6628 15.5385 20.3149 17.5557C18.9671 19.5729 16.9319 21.0313 14.5884 21.6593C12.245 22.2872 9.75325 22.0418 7.57736 20.9687C5.40147 19.8957 3.68987 18.0682 2.76145 15.8268C1.83303 13.5854 1.75111 11.0829 2.53094 8.78561C3.31078 6.48828 4.89919 4.55279 7.00024 3.33975C7.47854 3.0636 8.09013 3.22748 8.36627 3.70577C8.64241 4.18407 8.47854 4.79566 8.00024 5.0718C6.3194 6.04223 5.04867 7.59062 4.4248 9.42849C3.80093 11.2664 3.86647 13.2683 4.60921 15.0615C5.35195 16.8546 6.72123 18.3166 8.46194 19.175C10.2026 20.0334 12.1961 20.2297 14.0708 19.7274C15.9455 19.2251 17.5737 18.0583 18.652 16.4446C19.7303 14.8308 20.1851 12.8801 19.9318 10.9558C19.6785 9.03153 18.7342 7.26498 17.275 5.98528C15.8158 4.70558 13.9411 4 12.0002 4C11.448 4 11.0002 3.55228 11.0002 3ZM9.44555 6.66795C9.90507 6.3616 10.5259 6.48577 10.8323 6.9453L13.8323 11.4453C14.0739 11.8076 14.0532 12.2846 13.7811 12.6247L11.7811 15.1247C11.4361 15.556 10.8068 15.6259 10.3756 15.2809C9.94429 14.9359 9.87437 14.3066 10.2194 13.8753L11.7626 11.9463L9.1682 8.0547C8.86184 7.59517 8.98602 6.9743 9.44555 6.66795Z" fill="#2C2A29"/>
</svg>
