<svg width="24" height="24" viewBox="0 0 24 24" fill="none" xmlns="http://www.w3.org/2000/svg">
<path opacity="0.4" d="M11.2929 2.29289C11.4804 2.10536 11.7348 2 12 2C13.9778 2 15.9112 2.58649 17.5557 3.6853C19.2002 4.78412 20.4819 6.3459 21.2388 8.17317C21.7438 9.39231 22 10.6931 22 12C22 12.6519 21.9363 13.3053 21.8079 13.9509C21.422 15.8907 20.4696 17.6725 19.0711 19.0711C17.6725 20.4696 15.8907 21.422 13.9509 21.8079C13.3053 21.9363 12.6519 22 12 22C10.6931 22 9.39231 21.7438 8.17317 21.2388C6.3459 20.4819 4.78412 19.2002 3.6853 17.5557C2.58649 15.9112 2 13.9778 2 12C2 11.4477 2.44772 11 3 11H4C4.55228 11 5 11.4477 5 12C5 12.5313 4.58567 12.9658 4.0625 12.9981C4.21698 14.2267 4.65525 15.4074 5.34824 16.4446C6.22729 17.7602 7.47672 18.7855 8.93853 19.391C9.91384 19.795 10.9545 20 12 20C12.5215 20 13.0442 19.949 13.5607 19.8463C15.1126 19.5376 16.538 18.7757 17.6569 17.6569C18.7757 16.538 19.5376 15.1126 19.8463 13.5607C19.949 13.0442 20 12.5215 20 12C20 10.9545 19.795 9.91384 19.391 8.93853C18.7855 7.47672 17.7602 6.22729 16.4446 5.34824C15.4074 4.65525 14.2267 4.21698 12.9981 4.0625C12.9658 4.58567 12.5313 5 12 5C11.4477 5 11 4.55228 11 4V3C11 2.73478 11.1054 2.48043 11.2929 2.29289Z" fill="#2C2A29"/>
<path fill-rule="evenodd" clip-rule="evenodd" d="M9.44541 6.66796C9.90493 6.36161 10.5258 6.48578 10.8322 6.94531L13.8322 11.4453C14.0737 11.8077 14.053 12.2847 13.781 12.6247L11.781 15.1247C11.436 15.556 10.8067 15.6259 10.3754 15.2809C9.94415 14.9359 9.87423 14.3066 10.2192 13.8753L11.7624 11.9463L9.16806 8.05471C8.8617 7.59518 8.98588 6.97432 9.44541 6.66796Z" fill="#2C2A29"/>
</svg>
