<svg width="24" height="24" viewBox="0 0 24 24" fill="none" xmlns="http://www.w3.org/2000/svg">
<path fill-rule="evenodd" clip-rule="evenodd" d="M7.99971 3C8.91022 1.78747 10.3633 1 12 1C13.6367 1 15.0898 1.78747 16.0003 3C18.2093 3.00016 20 4.79096 20 7C20 7.14835 20.1261 7.39206 20.3171 7.50823C21.3239 8.12068 22 9.23093 22 10.5C22 12.433 20.433 14 18.5 14C18.3219 14 18.1844 14.0856 18.1341 14.1543C17.3172 15.2713 15.9937 16 14.5 16C13.9751 16 13.4699 15.9097 13 15.7436V20H16C16.5523 20 17 20.4477 17 21C17 21.5523 16.5523 22 16 22H8C7.44772 22 7 21.5523 7 21C7 20.4477 7.44772 20 8 20H11V15.7436C10.5301 15.9097 10.0249 16 9.5 16C8.00634 16 6.68276 15.2713 5.86586 14.1543C5.81561 14.0856 5.67809 14 5.5 14C3.567 14 2 12.433 2 10.5C2 9.23093 2.67606 8.12069 3.68289 7.50823C3.87387 7.39207 4 7.14834 4 7C4 4.79096 5.7907 3.00016 7.99971 3ZM13.293 13.6901C13.1982 13.6376 13.1002 13.5915 13 13.5516V12.5352L15.5547 10.8321C16.0142 10.5257 16.1384 9.90483 15.8321 9.4453C15.5257 8.98577 14.9048 8.8616 14.4453 9.16795L13 10.1315V6.5C13 5.94772 12.5523 5.5 12 5.5C11.4477 5.5 11 5.94772 11 6.5V7.44575L10.53 7.152C10.0617 6.85929 9.44471 7.00166 9.152 7.47C8.85929 7.93834 9.00166 8.55529 9.47 8.848L11 9.80425V10.7802L9.69612 10.5194C9.15456 10.4111 8.62773 10.7623 8.51942 11.3039C8.41111 11.8454 8.76232 12.3723 9.30388 12.4806L11 12.8198V13.5516C10.8998 13.5915 10.8018 13.6376 10.707 13.6901C10.3501 13.8873 9.9397 14 9.5 14C8.67131 14 7.93669 13.5978 7.48021 12.9736C7.00013 12.3172 6.22028 12 5.5 12C4.67157 12 4 11.3284 4 10.5C4 9.95778 4.28706 9.48168 4.72229 9.21693C5.44413 8.77784 6 7.92008 6 7C6 5.89543 6.89543 5 8 5C8.60126 5 9.20646 4.72806 9.59175 4.21064C10.1403 3.47398 11.0147 3 12 3C12.9853 3 13.8597 3.47398 14.4083 4.21064C14.7935 4.72806 15.3987 5 16 5C17.1046 5 18 5.89543 18 7C18 7.92008 18.5559 8.77784 19.2777 9.21693C19.7129 9.48168 20 9.95778 20 10.5C20 11.3284 19.3284 12 18.5 12C17.7797 12 16.9999 12.3172 16.5198 12.9736C16.0633 13.5978 15.3287 14 14.5 14C14.0603 14 13.6499 13.8873 13.293 13.6901Z" fill="black"/>
</svg>
