<svg width="24" height="24" viewBox="0 0 24 24" fill="none" xmlns="http://www.w3.org/2000/svg">
<path d="M18.0655 9.12583C18.0655 8.89396 17.9755 8.66184 17.7983 8.48513L12.6727 3.35955C12.3184 3.00523 11.7447 3.00523 11.3913 3.35955L6.26574 8.48513C5.91142 8.83945 5.91142 9.41312 6.26574 9.76653L6.34361 9.8444C6.69793 10.1987 7.2716 10.1987 7.62501 9.8444L11.1258 6.34357V15.0938C11.1258 15.594 11.5318 16 12.032 16C12.5322 16 12.9382 15.594 12.9382 15.0938L12.9382 6.34357L16.439 9.8444C16.7933 10.1987 17.367 10.1987 17.7204 9.8444L17.7983 9.76653C17.9755 9.58937 18.0655 9.3577 18.0655 9.12583Z" fill="#2C2A29"/>
<path fill-rule="evenodd" clip-rule="evenodd" d="M5 20C5 19.4477 5.44772 19 6 19L18 19C18.5523 19 19 19.4477 19 20C19 20.5523 18.5523 21 18 21H6C5.44772 21 5 20.5523 5 20Z" fill="#2C2A29"/>
</svg>
