<svg width="24" height="24" viewBox="0 0 24 24" fill="none" xmlns="http://www.w3.org/2000/svg">
<path d="M5 4C5 3.44772 5.44772 3 6 3H10C11.1046 3 12 3.89543 12 5C12 5.55228 11.5523 6 11 6C10.4477 6 10 5.55228 10 5H6C5.44772 5 5 4.55228 5 4Z" fill="#2C2A29"/>
<path d="M6 13C6 12.4477 6.44772 12 7 12C7.55228 12 8 12.4477 8 13V14C8 14.5523 7.55228 15 7 15C6.44772 15 6 14.5523 6 14V13Z" fill="#2C2A29"/>
<path d="M11 12C10.4477 12 10 12.4477 10 13V14C10 14.5523 10.4477 15 11 15C11.5523 15 12 14.5523 12 14V13C12 12.4477 11.5523 12 11 12Z" fill="#2C2A29"/>
<path fill-rule="evenodd" clip-rule="evenodd" d="M17 9.61257V9C17 7.89543 16.1046 7 15 7H3C1.89543 7 1 7.89543 1 9V18C1 19.1046 1.89543 20 3 20H15C16.1046 20 17 19.1046 17 18V17.3874L20.3675 18.5099C21.6626 18.9416 23 17.9777 23 16.6126V10.3874C23 9.02231 21.6626 8.05837 20.3675 8.49006L17 9.61257ZM15 9H3V18H15V9ZM17 11.7208V15.2792L21 16.6126V10.3874L17 11.7208Z" fill="#2C2A29"/>
</svg>
