<svg width="30" height="30" viewBox="0 0 30 30" fill="none" xmlns="http://www.w3.org/2000/svg">
<path d="M7.5 4.06219C6.98223 4.06219 6.5625 4.48193 6.5625 4.99969C6.5625 5.51746 6.98223 5.93719 7.5 5.93719H12.3162C12.8339 5.93719 13.2537 6.35693 13.2537 6.87469C13.2537 7.39246 13.6734 7.81219 14.1912 7.81219C14.7089 7.81219 15.1287 7.39246 15.1287 6.87469C15.1287 5.32139 13.8695 4.06219 12.3162 4.06219H7.5Z" fill="#2C2A29"/>
<path d="M10.625 17.2791C10.625 17.9694 10.0654 18.5291 9.375 18.5291C8.68464 18.5291 8.125 17.9694 8.125 17.2791C8.125 16.5887 8.68464 16.0291 9.375 16.0291C10.0654 16.0291 10.625 16.5887 10.625 17.2791Z" fill="#2C2A29"/>
<path d="M14.5956 17.2791C14.5956 17.9694 14.0359 18.5291 13.3456 18.5291C12.6552 18.5291 12.0956 17.9694 12.0956 17.2791C12.0956 16.5887 12.6552 16.0291 13.3456 16.0291C14.0359 16.0291 14.5956 16.5887 14.5956 17.2791Z" fill="#2C2A29"/>
<path fill-rule="evenodd" clip-rule="evenodd" d="M1.25 11.6174C1.25 10.2367 2.36929 9.11743 3.75 9.11743H18.8971C20.2778 9.11743 21.3971 10.2367 21.3971 11.6174V13.9567L25.0001 11.8764C25.1043 11.8163 25.2101 11.7646 25.3169 11.721C25.4716 11.6579 25.6284 11.6118 25.7855 11.5816C26.1708 11.5076 26.5577 11.5294 26.919 11.6312C27.9363 11.9178 28.7501 12.8387 28.7501 14.0415V20.6641C28.7501 22.5886 26.6668 23.7914 25.0001 22.8291L21.3971 20.7489V23.2351C21.3971 24.6158 20.2778 25.7351 18.8971 25.7351H3.75C2.36929 25.7351 1.25 24.6158 1.25 23.2351V11.6174ZM3.75 10.9924H18.8971C19.2422 10.9924 19.5221 11.2723 19.5221 11.6174V23.2351C19.5221 23.5803 19.2422 23.8601 18.8971 23.8601H3.75C3.40482 23.8601 3.125 23.5803 3.125 23.2351V11.6174C3.125 11.2723 3.40482 10.9924 3.75 10.9924ZM21.3971 18.5839C21.4004 18.5858 21.4038 18.5877 21.4071 18.5896L25.9376 21.2053C25.9897 21.2354 26.0434 21.257 26.0975 21.2709C26.4763 21.3679 26.8751 21.085 26.8751 20.6641V14.0415C26.8751 13.5604 26.3543 13.2597 25.9376 13.5002L21.4063 16.1164C21.4032 16.1182 21.4001 16.1199 21.3971 16.1217V18.5839Z" fill="#2C2A29"/>
</svg>
