<svg width="24" height="24" viewBox="0 0 24 24" fill="none" xmlns="http://www.w3.org/2000/svg">
<path fill-rule="evenodd" clip-rule="evenodd" d="M14.9088 3.87352C15.4681 3.31421 16.2267 3 17.0176 3C17.4093 3 17.7971 3.07714 18.1589 3.22702C18.5208 3.3769 18.8496 3.59658 19.1265 3.87352C19.4034 4.15046 19.6231 4.47924 19.773 4.84108C19.9229 5.20292 20 5.59074 20 5.98239C20 6.37404 19.9229 6.76186 19.773 7.1237C19.6231 7.48554 19.4034 7.81432 19.1265 8.09126L7.44516 19.7726C7.317 19.9008 7.15642 19.9917 6.98059 20.0356L3.24256 20.9701C2.90178 21.0553 2.54129 20.9555 2.29291 20.7071C2.04453 20.4587 1.94468 20.0982 2.02988 19.7575L2.96439 16.0194C3.00834 15.8436 3.09926 15.683 3.22742 15.5549L14.9088 3.87352ZM17.0176 5C16.7571 5 16.5072 5.1035 16.323 5.28773L6.05588 15.5548L7.44519 16.9441L17.7123 6.67704C17.8035 6.58582 17.8759 6.47752 17.9252 6.35833C17.9746 6.23914 18 6.1114 18 5.98239C18 5.85338 17.9746 5.72563 17.9252 5.60645C17.8759 5.48726 17.8035 5.37896 17.7123 5.28773C17.6211 5.19651 17.5128 5.12415 17.3936 5.07478C17.2744 5.02541 17.1466 5 17.0176 5ZM5.91349 18.2409L4.75916 17.0865L4.37439 18.6256L5.91349 18.2409Z" />
<path d="M11 20C11 19.4477 11.4477 19 12 19H21C21.5523 19 22 19.4477 22 20C22 20.5523 21.5523 21 21 21H12C11.4477 21 11 20.5523 11 20Z" />
</svg>
